
CASCADE Topology V1, (c) Matra-Datavision
Locations 11
1
1.000000000000000 0.000000000000000 0.000000000000000 0.000000000000000 
0.000000000000000 1.000000000000000 0.000000000000000 0.000000000000000 
0.000000000000000 0.000000000000000 1.000000000000000 0.000000000000000 
1
1.000000000000000 0.000000000000000 0.000000000000000 0.000000000000000 
0.000000000000000 1.000000000000000 0.000000000000000 0.000000000000000 
0.000000000000000 0.000000000000000 1.000000000000000 0.000000000000000 
2  2 -1 0
1
1.000000000000000 0.000000000000000 0.000000000000000 0.000000000000000 
0.000000000000000 1.000000000000000 0.000000000000000 0.000000000000000 
0.000000000000000 0.000000000000000 1.000000000000000 0.000000000000000 
1
1.000000000000000 0.000000000000000 0.000000000000000 0.000000000000000 
0.000000000000000 1.000000000000000 0.000000000000000 0.000000000000000 
0.000000000000000 0.000000000000000 1.000000000000000 0.000000000000000 
2  4 1 5 1 0
2  2 1 5 -1 4 -1 0
1
1.000000000000000 0.000000000000000 0.000000000000000 0.000000000000000 
0.000000000000000 1.000000000000000 0.000000000000000 0.000000000000000 
0.000000000000000 0.000000000000000 1.000000000000000 0.000000000000000 
1
1.000000000000000 0.000000000000000 0.000000000000000 0.000000000000000 
0.000000000000000 1.000000000000000 0.000000000000000 0.000000000000000 
0.000000000000000 0.000000000000000 1.000000000000000 53.000000000000000 
2  8 1 9 1 2 -1 0
2  2 1 9 -1 8 -1 0
Curve2ds 20
3 7.14074786057466326 2.44225521783479849 -1.00000000000000000 -0.00000000000000009 0.00000000000000009 -1.00000000000000000 47.00000000000000000 26.50000000000000355
7 0 0  1 2 2  0.00000000000000000 0.00000000000000000  40.00000000000000000 0.00000000000000000 
 4.24919421877533665 2 5.61869962015006230 2
1 -29.85925213942533674 18.78359495289948455 0.00000000000000000 -1.00000000000000000 
7 0 0  1 2 2  0.00000000000000000 0.00000000000000000  48.00000000000000000 0.00000000000000000 
 0.00000000000000000 2 43.84133973506468607 2
1 -29.85925213942533674 -25.05774478216520151 1.00000000000000000 0.00000000000000000 
1 0.00000000000000000 0.00000000000000000 1.00000000000000000 0.00000000000000000 
1 28.14074786057464195 -25.05774478216520151 0.00000000000000000 1.00000000000000000 
1 0.00000000000000000 0.00000000000000000 1.00000000000000000 0.00000000000000000 
1 40.00000000000000000 0.00000000000000000 0.00000000000000000 1.00000000000000000 
1 0.00000000000000000 0.00000000000000000 0.00000000000000000 1.00000000000000000 
1 0.00000000000000000 1.00000000000000000 1.00000000000000000 0.00000000000000000 
1 0.00000000000000000 0.00000000000000000 0.00000000000000000 1.00000000000000000 
1 51.20768489800677514 0.00000000000000000 0.00000000000000000 1.00000000000000000 
1 0.00000000000000000 1.00000000000000000 1.00000000000000000 0.00000000000000000 
7 0 0  1 2 2  0.00000000000000000 1.00000000000000000  57.99999999999997868 1.00000000000000000 
 0.00000000000000000 2 40.00000000000000000 2
7 0 0  1 2 2  0.00000000000000000 1.00000000000000000  51.20768489800677514 1.00000000000000000 
 0.00000000000000000 2 48.00000000000000000 2
1 48.00000000000000000 0.00000000000000000 0.00000000000000000 1.00000000000000000 
1 0.00000000000000000 0.00000000000000000 0.00000000000000000 1.00000000000000000 
1 57.99999999999997868 0.00000000000000000 0.00000000000000000 1.00000000000000000 
1 0.00000000000000000 0.00000000000000000 0.00000000000000000 1.00000000000000000 
Curves 12
3 8.00000000000000000 27.50000000000000000 0.00000000000000000 0.00000000000000000 0.00000000000000000 1.00000000000000000 -1.00000000000000000 -0.00000000000000009 0.00000000000000000 0.00000000000000009 -1.00000000000000000 0.00000000000000000 47.00000000000000000 26.50000000000000355
1 -29.00000000000000000 43.84133973506468607 0.00000000000000000 0.00000000000000000 -1.00000000000000000 0.00000000000000000 
1 -29.00000000000000000 0.00000000000000000 0.00000000000000000 1.00000000000000000 0.00000000000000000 0.00000000000000000 
1 28.99999999999997868 0.00000000000000000 0.00000000000000000 0.00000000000000000 1.00000000000000000 0.00000000000000000 
7 0 0  1 2 2  -29.00000000000000000 43.84133973506467896 0.00000000000000000  -20.00000000000000000 48.00000000000000000 53.00000000000000000 
 0.00000000000000000 2 1.00000000000000000 2
1 20.00000000000000000 48.00000000000000000 0.00000000000000000 -1.00000000000000000 0.00000000000000000 0.00000000000000000 
7 0 0  1 2 2  28.99999999999997868 51.20768489800676804 0.00000000000000000  20.00000000000000000 48.00000000000000000 53.00000000000000000 
 0.00000000000000000 2 1.00000000000000000 2
1 -20.00000000000000000 48.00000000000000000 0.00000000000000000 0.00000000000000000 -1.00000000000000000 0.00000000000000000 
1 -20.00000000000000000 0.00000000000000000 0.00000000000000000 1.00000000000000000 0.00000000000000000 0.00000000000000000 
1 20.00000000000000000 0.00000000000000000 0.00000000000000000 0.00000000000000000 1.00000000000000000 0.00000000000000000 
7 0 0  1 2 2  -29.00000000000000000 0.00000000000000000 0.00000000000000000  -20.00000000000000000 0.00000000000000000 53.00000000000000000 
 0.00000000000000000 2 1.00000000000000000 2
7 0 0  1 2 2  28.99999999999997868 0.00000000000000000 0.00000000000000000  20.00000000000000000 0.00000000000000000 53.00000000000000000 
 0.00000000000000000 2 1.00000000000000000 2
Polygon3D 0
PolygonOnTriangulations 0
Surfaces 6
1 0.85925213942533696 25.05774478216520151 0.00000000000000000 0.00000000000000000 0.00000000000000000 1.00000000000000000 1.00000000000000000 0.00000000000000000 -0.00000000000000000 -0.00000000000000000 1.00000000000000000 0.00000000000000000 
9 0 0 0 0 8 1 9 2 2 2 28.99999999999997868 51.20768489800676804 0.00000000000000000  20.00000000000000000 48.00000000000000000 53.00000000000000000  
21.80194944089724984 53.23462573807315579 0.00000000000000000  15.00000000000000178 48.00000000000000000 53.00000000000000000  
13.90056836973477949 54.46755163107855680 0.00000000000000000  10.00000000000000000 48.00000000000000000 53.00000000000000000  
5.61730071817702559 54.81594865132074545 0.00000000000000000  4.99999999999999911 48.00000000000000000 53.00000000000000000  
-2.68248323974278335 54.23893965067743750 0.00000000000000000  -0.00000000000000011 48.00000000000000000 53.00000000000000000  
-10.61945331329492426 52.75378426301595880 0.00000000000000000  -5.00000000000000089 48.00000000000000000 53.00000000000000000  
-17.83779013685287040 50.43659122306710429 0.00000000000000000  -10.00000000000000178 48.00000000000000000 53.00000000000000000  
-24.03849531818425689 47.41261645327675467 0.00000000000000000  -15.00000000000000178 48.00000000000000000 53.00000000000000000  
-29.00000000000000000 43.84133973506467896 0.00000000000000000  -20.00000000000000000 48.00000000000000000 53.00000000000000000  

0.00000000000000000 9
40.00000000000000000 9

0.00000000000000000 2
1.00000000000000000 2

9 0 0 0 0 1 1 2 2 2 2 -29.00000000000000000 43.84133973506468607 0.00000000000000000  -20.00000000000000000 48.00000000000000000 53.00000000000000000  
-29.00000000000000000 0.00000000000000000 0.00000000000000000  -20.00000000000000000 0.00000000000000000 53.00000000000000000  

0.00000000000000000 2
48.00000000000000000 2

0.00000000000000000 2
1.00000000000000000 2

9 0 0 0 0 1 1 2 2 2 2 -29.00000000000000000 0.00000000000000000 0.00000000000000000  -20.00000000000000000 0.00000000000000000 53.00000000000000000  
28.99999999999997868 0.00000000000000000 0.00000000000000000  20.00000000000000000 0.00000000000000000 53.00000000000000000  

0.00000000000000000 2
57.99999999999997868 2

0.00000000000000000 2
1.00000000000000000 2

9 0 0 0 0 1 1 2 2 2 2 28.99999999999997868 0.00000000000000000 0.00000000000000000  20.00000000000000000 0.00000000000000000 53.00000000000000000  
28.99999999999997868 51.20768489800677514 0.00000000000000000  20.00000000000000000 48.00000000000000000 53.00000000000000000  

0.00000000000000000 2
51.20768489800677514 2

0.00000000000000000 2
1.00000000000000000 2

1 0.00000000000000000 24.00000000000000000 53.00000000000000000 0.00000000000000000 0.00000000000000000 1.00000000000000000 1.00000000000000000 0.00000000000000000 -0.00000000000000000 -0.00000000000000000 1.00000000000000000 0.00000000000000000 
Triangulations 0

TShapes 34
Ve
0.000000100000000
28.999999999999979 51.207684898006775 0.000000000000000
0 0

0101101
*
Ve
0.000000100000000
-29.000000000000000 43.841339735064686 0.000000000000000
0 0

0101101
*
Ed
 0.000000100000000 1 1 0
1  1 0 4.249194218775337 5.618699620150062
2  1 1 3 4.249194218775337 5.618699620150062
2  2 2 0 4.249194218775337 5.618699620150062
4 C0 1 3 2 0
0

0101000
+34 0 -33 0 *
Ve
0.000000100000000
-29.000000000000000 0.000000000000000 0.000000000000000
0 0

0101101
*
Ed
 0.000000100000000 1 1 0
1  2 0 0.000000000000000 43.841339735064686
2  3 1 3 0.000000000000000 43.841339735064686
2  4 3 0 0.000000000000000 43.841339735064686
4 C0 1 3 3 0
0

0101000
+33 0 -31 0 *
Ve
0.000000100000000
28.999999999999979 0.000000000000000 0.000000000000000
0 0

0101101
*
Ed
 0.000000100000000 1 1 0
1  3 0 0.000000000000000 57.999999999999979
2  5 1 3 0.000000000000000 57.999999999999979
2  6 4 0 0.000000000000000 57.999999999999979
4 C0 1 3 4 0
0

0101000
+31 0 -29 0 *
Ed
 0.000000100000000 1 1 0
1  4 0 0.000000000000000 51.207684898006775
2  7 1 3 0.000000000000000 51.207684898006775
2  8 5 0 0.000000000000000 51.207684898006775
4 C0 1 3 5 0
0

0101000
+29 0 -34 0 *
Wi

0101100
+32 7 +30 7 +28 7 +27 7 *
Fa
0  0.000000100000000 1 0

0111000
+26 6 *
Ve
0.000000100000000
-20.000000000000000 48.000000000000000 0.000000000000000
0 0

0101101
*
Ed
 0.000000100000000 1 1 0
1  5 0 0.000000000000000 1.000000000000000
2  9 2 0 0.000000000000000 1.000000000000000
2  10 3 0 0.000000000000000 1.000000000000000
4 C0 2 0 3 0
0

0101000
+33 0 -24 10 *
Ve
0.000000100000000
20.000000000000000 48.000000000000000 0.000000000000000
0 0

0101101
*
Ed
 0.000000100000000 1 1 0
1  6 0 0.000000000000000 40.000000000000000
2  11 2 11 0.000000000000000 40.000000000000000
0

0101000
+22 0 -24 0 *
Ed
 0.000000100000000 1 1 0
1  7 0 0.000000000000000 1.000000000000000
2  12 2 0 0.000000000000000 1.000000000000000
2  13 5 0 0.000000000000000 1.000000000000000
4 C0 2 0 5 0
0

0101000
+34 0 -22 10 *
Wi

0101100
+32 0 +23 0 -21 10 -20 0 *
Fa
0  0.000000100000000 2 0

0111000
+19 0 *
Ve
0.000000100000000
-20.000000000000000 0.000000000000000 0.000000000000000
0 0

0101101
*
Ed
 0.000000100000000 1 1 0
1  8 0 0.000000000000000 48.000000000000000
2  14 3 11 0.000000000000000 48.000000000000000
0

0101000
+24 0 -17 0 *
Ve
0.000000100000000
20.000000000000000 0.000000000000000 0.000000000000000
0 0

0101101
*
Ed
 0.000000100000000 1 1 0
1  9 0 0.000000000000000 40.000000000000000
2  15 4 11 0.000000000000000 40.000000000000000
0

0101000
+17 0 -15 0 *
Ed
 0.000000100000000 1 1 0
1  10 0 0.000000000000000 48.000000000000000
2  16 5 11 0.000000000000000 48.000000000000000
0

0101000
+15 0 -22 0 *
Wi

0101100
+16 0 +14 0 +13 0 +21 0 *
Fa
0  0.000000100000000 6 0

0111000
+12 10 *
Ed
 0.000000100000000 1 1 0
1  11 0 0.000000000000000 1.000000000000000
2  17 3 0 0.000000000000000 1.000000000000000
2  18 4 0 0.000000000000000 1.000000000000000
4 C0 3 0 4 0
0

0101000
+31 0 -17 10 *
Wi

0101100
+30 0 +10 0 -16 10 -23 0 *
Fa
0  0.000000100000000 3 0

0111000
+9 0 *
Ed
 0.000000100000000 1 1 0
1  12 0 0.000000000000000 1.000000000000000
2  19 4 0 0.000000000000000 1.000000000000000
2  20 5 0 0.000000000000000 1.000000000000000
4 C0 4 0 5 0
0

0101000
+29 0 -15 10 *
Wi

0101100
+28 0 +7 0 -14 10 -10 0 *
Fa
0  0.000000100000000 4 0

0111000
+6 0 *
Wi

0101100
+27 0 +20 0 -13 10 -7 0 *
Fa
0  0.000000100000000 5 0

0111000
+4 0 *
Sh

0101100
+25 3 -18 0 -11 0 -8 0 -5 0 -3 0 *
So

1100000
+2 0 *

-1 1 