
CASCADE Topology V1, (c) Matra-Datavision
Locations 32
1
1.000000000000000 0.000000000000000 0.000000000000000 0.000000000000000 
0.000000000000000 1.000000000000000 0.000000000000000 0.000000000000000 
0.000000000000000 0.000000000000000 1.000000000000000 0.000000000000000 
1
1.000000000000000 0.000000000000000 0.000000000000000 0.000000000000000 
0.000000000000000 1.000000000000000 0.000000000000000 0.000000000000000 
0.000000000000000 0.000000000000000 1.000000000000000 0.000000000000000 
1
1.000000000000000 0.000000000000000 0.000000000000000 0.000000000000000 
0.000000000000000 1.000000000000000 0.000000000000000 0.000000000000000 
0.000000000000000 0.000000000000000 1.000000000000000 0.000000000000000 
1
1.000000000000000 0.000000000000000 0.000000000000000 0.000000000000000 
0.000000000000000 1.000000000000000 0.000000000000000 0.000000000000000 
0.000000000000000 0.000000000000000 1.000000000000000 0.000000000000000 
1
1.000000000000000 0.000000000000000 0.000000000000000 0.000000000000000 
0.000000000000000 1.000000000000000 0.000000000000000 0.000000000000000 
0.000000000000000 0.000000000000000 1.000000000000000 0.000000000000000 
1
1.000000000000000 0.000000000000000 0.000000000000000 0.000000000000000 
0.000000000000000 1.000000000000000 0.000000000000000 0.000000000000000 
0.000000000000000 0.000000000000000 1.000000000000000 0.000000000000000 
2  2 -1 3 1 4 -1 5 1 6 -1 0
2  3 1 4 -1 5 1 6 -1 0
2  2 -1 0
1
0.000000000000000 -1.000000000000000 0.000000000000000 0.000000000000000 
1.000000000000000 0.000000000000000 0.000000000000000 0.000000000000000 
0.000000000000000 0.000000000000000 1.000000000000000 0.000000000000000 
2  10 1 6 -1 0
2  6 1 10 -1 0
1
1.000000000000000 0.000000000000000 0.000000000000000 0.000000000000000 
0.000000000000000 1.000000000000000 0.000000000000000 0.000000000000000 
0.000000000000000 0.000000000000000 1.000000000000000 7.000000000000000 
2  13 -1 6 1 10 -1 0
1
1.000000000000000 0.000000000000000 0.000000000000000 0.000000000000000 
0.000000000000000 1.000000000000000 0.000000000000000 0.000000000000000 
0.000000000000000 0.000000000000000 1.000000000000000 0.000000000000000 
1
1.000000000000000 0.000000000000000 0.000000000000000 0.000000000000000 
0.000000000000000 1.000000000000000 0.000000000000000 0.000000000000000 
0.000000000000000 0.000000000000000 1.000000000000000 53.000000000000000 
2  15 1 16 1 2 -1 0
2  2 1 16 -1 15 -1 0
2  10 1 6 -1 13 1 0
2  5 1 6 -1 0
2  3 1 4 -1 0
2  15 1 16 1 2 -1 3 1 4 -1 0
1
1.000000000000000 0.000000000000000 0.000000000000000 0.000000000000000 
0.000000000000000 1.000000000000000 0.000000000000000 0.000000000000000 
0.000000000000000 0.000000000000000 1.000000000000000 0.000000000000000 
1
1.000000000000000 0.000000000000000 0.000000000000000 0.000000000000000 
0.000000000000000 1.000000000000000 0.000000000000000 0.000000000000000 
0.000000000000000 0.000000000000000 1.000000000000000 53.000000000000000 
2  23 1 24 1 4 -1 0
2  4 1 24 -1 23 -1 0
1
1.000000000000000 0.000000000000000 0.000000000000000 -0.000000000000000 
0.000000000000000 1.000000000000000 0.000000000000000 -0.000000000000000 
0.000000000000000 0.000000000000000 1.000000000000000 -10.000000000000000 
2  27 -1 4 1 24 -1 23 -1 0
2  6 -1 13 1 0
2  23 1 24 1 4 -1 27 1 0
2  4 -1 27 1 5 1 6 -1 0
2  23 1 24 1 0
Curve2ds 56
3 7.14074786057466326 2.44225521783479849 -1.00000000000000000 -0.00000000000000009 0.00000000000000009 -1.00000000000000000 47.00000000000000000 26.50000000000000355
7 0 0  1 2 2  0.00000000000000000 0.00000000000000000  40.00000000000000000 0.00000000000000000 
 4.24919421877533665 2 5.61869962015006230 2
1 28.14074786057464195 -25.05774478216520151 0.00000000000000000 1.00000000000000000 
1 0.00000000000000000 0.00000000000000000 1.00000000000000000 0.00000000000000000 
1 -29.85925213942533674 18.78359495289948455 0.00000000000000000 -1.00000000000000000 
7 0 0  1 2 2  0.00000000000000000 0.00000000000000000  48.00000000000000000 0.00000000000000000 
 0.00000000000000000 2 43.84133973506468607 2
1 -29.85925213942533674 -25.05774478216520151 1.00000000000000000 0.00000000000000000 
1 0.00000000000000000 0.00000000000000000 1.00000000000000000 0.00000000000000000 
1 0.00000000000000000 0.00000000000000000 1.00000000000000000 0.00000000000000000 
1 0.00000000000000000 -7.00000000000000000 1.00000000000000000 0.00000000000000000 
1 0.00000000000000000 0.00000000000000000 1.00000000000000000 0.00000000000000000 
1 0.00000000000000000 -7.00000000000000000 1.00000000000000000 0.00000000000000000 
1 0.00000000000000000 0.00000000000000000 1.00000000000000000 0.00000000000000000 
1 0.00000000000000000 -7.00000000000000000 1.00000000000000000 0.00000000000000000 
1 0.00000000000000000 0.00000000000000000 1.00000000000000000 0.00000000000000000 
1 0.00000000000000000 -7.00000000000000000 1.00000000000000000 0.00000000000000000 
1 40.00000000000000000 0.00000000000000000 0.00000000000000000 1.00000000000000000 
1 0.00000000000000000 0.00000000000000000 0.00000000000000000 1.00000000000000000 
1 0.00000000000000000 1.00000000000000000 1.00000000000000000 0.00000000000000000 
1 0.00000000000000000 0.00000000000000000 0.00000000000000000 1.00000000000000000 
1 51.20768489800677514 0.00000000000000000 0.00000000000000000 1.00000000000000000 
7 0 0  1 2 2  0.00000000000000000 1.00000000000000000  51.20768489800677514 1.00000000000000000 
 0.00000000000000000 2 48.00000000000000000 2
1 57.99999999999997868 0.00000000000000000 0.00000000000000000 1.00000000000000000 
1 0.00000000000000000 0.00000000000000000 0.00000000000000000 1.00000000000000000 
1 48.00000000000000000 0.00000000000000000 0.00000000000000000 1.00000000000000000 
1 0.00000000000000000 0.00000000000000000 0.00000000000000000 1.00000000000000000 
1 0.00000000000000000 1.00000000000000000 1.00000000000000000 0.00000000000000000 
7 0 0  1 2 2  0.00000000000000000 1.00000000000000000  57.99999999999997868 1.00000000000000000 
 0.00000000000000000 2 40.00000000000000000 2
1 0.00000000000000000 0.00000000000000000 0.00000000000000000 -1.00000000000000000 
1 6.28318530717958623 0.00000000000000000 0.00000000000000000 -1.00000000000000000 
1 0.00000000000000000 0.00000000000000000 0.00000000000000000 -1.00000000000000000 
1 6.28318530717958623 0.00000000000000000 0.00000000000000000 -1.00000000000000000 
1 0.00000000000000000 0.00000000000000000 0.00000000000000000 -1.00000000000000000 
1 6.28318530717958623 0.00000000000000000 0.00000000000000000 -1.00000000000000000 
1 0.00000000000000000 0.00000000000000000 0.00000000000000000 -1.00000000000000000 
1 6.28318530717958623 0.00000000000000000 0.00000000000000000 -1.00000000000000000 
1 0.00000000000000000 0.00000000000000000 1.00000000000000000 0.00000000000000000 
1 0.00000000000000000 -10.00000000000000000 1.00000000000000000 0.00000000000000000 
1 0.00000000000000000 0.00000000000000000 1.00000000000000000 0.00000000000000000 
1 0.00000000000000000 -10.00000000000000000 1.00000000000000000 0.00000000000000000 
1 0.00000000000000000 0.00000000000000000 1.00000000000000000 0.00000000000000000 
1 0.00000000000000000 -10.00000000000000000 1.00000000000000000 0.00000000000000000 
1 0.00000000000000000 0.00000000000000000 1.00000000000000000 0.00000000000000000 
1 0.00000000000000000 -10.00000000000000000 1.00000000000000000 0.00000000000000000 
1 0.00000000000000000 0.00000000000000000 1.00000000000000000 0.00000000000000000 
1 0.00000000000000000 -10.00000000000000000 1.00000000000000000 0.00000000000000000 
1 0.00000000000000000 0.00000000000000000 0.00000000000000000 -1.00000000000000000 
1 6.28318530717958623 0.00000000000000000 0.00000000000000000 -1.00000000000000000 
1 0.00000000000000000 0.00000000000000000 0.00000000000000000 -1.00000000000000000 
1 6.28318530717958623 0.00000000000000000 0.00000000000000000 -1.00000000000000000 
1 0.00000000000000000 0.00000000000000000 0.00000000000000000 -1.00000000000000000 
1 6.28318530717958623 0.00000000000000000 0.00000000000000000 -1.00000000000000000 
1 0.00000000000000000 0.00000000000000000 0.00000000000000000 -1.00000000000000000 
1 6.28318530717958623 0.00000000000000000 0.00000000000000000 -1.00000000000000000 
1 0.00000000000000000 0.00000000000000000 0.00000000000000000 -1.00000000000000000 
1 6.28318530717958623 0.00000000000000000 0.00000000000000000 -1.00000000000000000 
Curves 30
3 8.00000000000000000 27.50000000000000000 0.00000000000000000 0.00000000000000000 0.00000000000000000 1.00000000000000000 -1.00000000000000000 -0.00000000000000009 0.00000000000000000 0.00000000000000009 -1.00000000000000000 0.00000000000000000 47.00000000000000000 26.50000000000000355
1 28.99999999999997868 0.00000000000000000 0.00000000000000000 0.00000000000000000 1.00000000000000000 0.00000000000000000 
1 -29.00000000000000000 43.84133973506468607 0.00000000000000000 0.00000000000000000 -1.00000000000000000 0.00000000000000000 
1 -29.00000000000000000 0.00000000000000000 0.00000000000000000 1.00000000000000000 0.00000000000000000 0.00000000000000000 
2 10.00000000000000000 -12.00000000000000000 0.00000000000000000 0.00000000000000000 0.00000000000000000 1.00000000000000000 1.00000000000000000 0.00000000000000000 -0.00000000000000000 -0.00000000000000000 1.00000000000000000 0.00000000000000000 1.60000000000000009
2 27.00000000000000000 22.00000000000000000 0.00000000000000000 0.00000000000000000 0.00000000000000000 1.00000000000000000 1.00000000000000000 0.00000000000000000 -0.00000000000000000 -0.00000000000000000 1.00000000000000000 0.00000000000000000 1.60000000000000009
2 27.00000000000000000 0.00000000000000000 0.00000000000000000 0.00000000000000000 0.00000000000000000 1.00000000000000000 1.00000000000000000 0.00000000000000000 -0.00000000000000000 -0.00000000000000000 1.00000000000000000 0.00000000000000000 7.00000000000000000
2 44.00000000000000000 -12.00000000000000000 0.00000000000000000 0.00000000000000000 0.00000000000000000 1.00000000000000000 1.00000000000000000 0.00000000000000000 -0.00000000000000000 -0.00000000000000000 1.00000000000000000 0.00000000000000000 1.60000000000000009
7 0 0  1 2 2  -29.00000000000000000 43.84133973506467896 0.00000000000000000  -20.00000000000000000 48.00000000000000000 53.00000000000000000 
 0.00000000000000000 2 1.00000000000000000 2
1 20.00000000000000000 48.00000000000000000 0.00000000000000000 -1.00000000000000000 0.00000000000000000 0.00000000000000000 
7 0 0  1 2 2  28.99999999999997868 51.20768489800676804 0.00000000000000000  20.00000000000000000 48.00000000000000000 53.00000000000000000 
 0.00000000000000000 2 1.00000000000000000 2
1 20.00000000000000000 0.00000000000000000 0.00000000000000000 0.00000000000000000 1.00000000000000000 0.00000000000000000 
7 0 0  1 2 2  28.99999999999997868 0.00000000000000000 0.00000000000000000  20.00000000000000000 0.00000000000000000 53.00000000000000000 
 0.00000000000000000 2 1.00000000000000000 2
7 0 0  1 2 2  -29.00000000000000000 0.00000000000000000 0.00000000000000000  -20.00000000000000000 0.00000000000000000 53.00000000000000000 
 0.00000000000000000 2 1.00000000000000000 2
1 -20.00000000000000000 48.00000000000000000 0.00000000000000000 0.00000000000000000 -1.00000000000000000 0.00000000000000000 
1 -20.00000000000000000 0.00000000000000000 0.00000000000000000 1.00000000000000000 0.00000000000000000 0.00000000000000000 
1 12.00000000000000178 11.59999999999999787 0.00000000000000000 0.00000000000000000 0.00000000000000000 1.00000000000000000 
1 -21.99999999999999289 28.60000000000000497 0.00000000000000000 0.00000000000000000 0.00000000000000000 1.00000000000000000 
1 0.00000000000000755 34.00000000000000000 0.00000000000000000 0.00000000000000000 0.00000000000000000 1.00000000000000000 
1 12.00000000000001066 45.60000000000000142 0.00000000000000000 0.00000000000000000 0.00000000000000000 1.00000000000000000 
2 -15.49999999999999645 11.50000000000000000 0.00000000000000000 0.00000000000000000 0.00000000000000000 1.00000000000000000 1.00000000000000000 0.00000000000000000 -0.00000000000000000 -0.00000000000000000 1.00000000000000000 0.00000000000000000 1.75000000000000000
2 15.50000000000000355 11.50000000000000000 0.00000000000000000 0.00000000000000000 0.00000000000000000 1.00000000000000000 1.00000000000000000 0.00000000000000000 -0.00000000000000000 -0.00000000000000000 1.00000000000000000 0.00000000000000000 1.75000000000000000
2 0.00000000000000000 27.00000000000000000 0.00000000000000000 0.00000000000000000 0.00000000000000000 1.00000000000000000 1.00000000000000000 0.00000000000000000 -0.00000000000000000 -0.00000000000000000 1.00000000000000000 0.00000000000000000 12.00000000000000000
2 -15.49999999999999645 42.50000000000000000 0.00000000000000000 0.00000000000000000 0.00000000000000000 1.00000000000000000 1.00000000000000000 0.00000000000000000 -0.00000000000000000 -0.00000000000000000 1.00000000000000000 0.00000000000000000 1.75000000000000000
2 15.50000000000000355 42.50000000000000000 0.00000000000000000 0.00000000000000000 0.00000000000000000 1.00000000000000000 1.00000000000000000 0.00000000000000000 -0.00000000000000000 -0.00000000000000000 1.00000000000000000 0.00000000000000000 1.75000000000000000
1 -13.74999999999999645 11.50000000000000000 53.00000000000000000 -0.00000000000000000 -0.00000000000000000 -1.00000000000000000 
1 17.25000000000000355 11.50000000000000000 53.00000000000000000 -0.00000000000000000 -0.00000000000000000 -1.00000000000000000 
1 12.00000000000000000 27.00000000000000000 53.00000000000000000 -0.00000000000000000 -0.00000000000000000 -1.00000000000000000 
1 -13.74999999999999645 42.50000000000000000 53.00000000000000000 -0.00000000000000000 -0.00000000000000000 -1.00000000000000000 
1 17.25000000000000355 42.50000000000000000 53.00000000000000000 -0.00000000000000000 -0.00000000000000000 -1.00000000000000000 
Polygon3D 0
PolygonOnTriangulations 0
Surfaces 24
1 0.85925213942533696 25.05774478216520151 0.00000000000000000 0.00000000000000000 0.00000000000000000 1.00000000000000000 1.00000000000000000 0.00000000000000000 -0.00000000000000000 -0.00000000000000000 1.00000000000000000 0.00000000000000000 
9 0 0 0 0 8 1 9 2 2 2 28.99999999999997868 51.20768489800676804 0.00000000000000000  20.00000000000000000 48.00000000000000000 53.00000000000000000  
21.80194944089724984 53.23462573807315579 0.00000000000000000  15.00000000000000178 48.00000000000000000 53.00000000000000000  
13.90056836973477949 54.46755163107855680 0.00000000000000000  10.00000000000000000 48.00000000000000000 53.00000000000000000  
5.61730071817702559 54.81594865132074545 0.00000000000000000  4.99999999999999911 48.00000000000000000 53.00000000000000000  
-2.68248323974278335 54.23893965067743750 0.00000000000000000  -0.00000000000000011 48.00000000000000000 53.00000000000000000  
-10.61945331329492426 52.75378426301595880 0.00000000000000000  -5.00000000000000089 48.00000000000000000 53.00000000000000000  
-17.83779013685287040 50.43659122306710429 0.00000000000000000  -10.00000000000000178 48.00000000000000000 53.00000000000000000  
-24.03849531818425689 47.41261645327675467 0.00000000000000000  -15.00000000000000178 48.00000000000000000 53.00000000000000000  
-29.00000000000000000 43.84133973506467896 0.00000000000000000  -20.00000000000000000 48.00000000000000000 53.00000000000000000  

0.00000000000000000 9
40.00000000000000000 9

0.00000000000000000 2
1.00000000000000000 2

9 0 0 0 0 1 1 2 2 2 2 28.99999999999997868 0.00000000000000000 0.00000000000000000  20.00000000000000000 0.00000000000000000 53.00000000000000000  
28.99999999999997868 51.20768489800677514 0.00000000000000000  20.00000000000000000 48.00000000000000000 53.00000000000000000  

0.00000000000000000 2
51.20768489800677514 2

0.00000000000000000 2
1.00000000000000000 2

9 0 0 0 0 1 1 2 2 2 2 -29.00000000000000000 43.84133973506468607 0.00000000000000000  -20.00000000000000000 48.00000000000000000 53.00000000000000000  
-29.00000000000000000 0.00000000000000000 0.00000000000000000  -20.00000000000000000 0.00000000000000000 53.00000000000000000  

0.00000000000000000 2
48.00000000000000000 2

0.00000000000000000 2
1.00000000000000000 2

9 0 0 0 0 1 1 2 2 2 2 -29.00000000000000000 0.00000000000000000 0.00000000000000000  -20.00000000000000000 0.00000000000000000 53.00000000000000000  
28.99999999999997868 0.00000000000000000 0.00000000000000000  20.00000000000000000 0.00000000000000000 53.00000000000000000  

0.00000000000000000 2
57.99999999999997868 2

0.00000000000000000 2
1.00000000000000000 2

2 12.00000000000000178 9.99999999999999645 0.00000000000000000 -0.00000000000000000 0.00000000000000000 -1.00000000000000000 0.00000000000000022 1.00000000000000000 0.00000000000000000 -1.00000000000000000 0.00000000000000022 0.00000000000000000 1.60000000000000009
2 -21.99999999999999289 27.00000000000000355 0.00000000000000000 -0.00000000000000000 0.00000000000000000 -1.00000000000000000 0.00000000000000022 1.00000000000000000 0.00000000000000000 -1.00000000000000000 0.00000000000000022 0.00000000000000000 1.60000000000000009
2 0.00000000000000600 27.00000000000000000 0.00000000000000000 -0.00000000000000000 0.00000000000000000 -1.00000000000000000 0.00000000000000022 1.00000000000000000 0.00000000000000000 -1.00000000000000000 0.00000000000000022 0.00000000000000000 7.00000000000000000
2 12.00000000000001066 44.00000000000000000 0.00000000000000000 -0.00000000000000000 0.00000000000000000 -1.00000000000000000 0.00000000000000022 1.00000000000000000 0.00000000000000000 -1.00000000000000000 0.00000000000000022 0.00000000000000000 1.60000000000000009
1 0.00000000000000000 24.00000000000000000 53.00000000000000000 0.00000000000000000 0.00000000000000000 1.00000000000000000 1.00000000000000000 0.00000000000000000 -0.00000000000000000 -0.00000000000000000 1.00000000000000000 0.00000000000000000 
2 -15.49999999999999645 11.50000000000000000 53.00000000000000000 0.00000000000000000 0.00000000000000000 1.00000000000000000 1.00000000000000000 0.00000000000000000 -0.00000000000000000 -0.00000000000000000 1.00000000000000000 0.00000000000000000 1.75000000000000000
2 15.50000000000000355 11.50000000000000000 53.00000000000000000 0.00000000000000000 0.00000000000000000 1.00000000000000000 1.00000000000000000 0.00000000000000000 -0.00000000000000000 -0.00000000000000000 1.00000000000000000 0.00000000000000000 1.75000000000000000
2 0.00000000000000000 27.00000000000000000 53.00000000000000000 0.00000000000000000 0.00000000000000000 1.00000000000000000 1.00000000000000000 0.00000000000000000 -0.00000000000000000 -0.00000000000000000 1.00000000000000000 0.00000000000000000 12.00000000000000000
2 -15.49999999999999645 42.50000000000000000 53.00000000000000000 0.00000000000000000 0.00000000000000000 1.00000000000000000 1.00000000000000000 0.00000000000000000 -0.00000000000000000 -0.00000000000000000 1.00000000000000000 0.00000000000000000 1.75000000000000000
2 15.50000000000000355 42.50000000000000000 53.00000000000000000 0.00000000000000000 0.00000000000000000 1.00000000000000000 1.00000000000000000 0.00000000000000000 -0.00000000000000000 -0.00000000000000000 1.00000000000000000 0.00000000000000000 1.75000000000000000
1 0.27118644067797049 26.99999999999999645 0.00000000000000000 0.00000000000000000 0.00000000000000000 1.00000000000000000 1.00000000000000000 0.00000000000000000 -0.00000000000000000 -0.00000000000000000 1.00000000000000000 0.00000000000000000 
1 0.27118644067797049 26.99999999999999645 0.00000000000000000 0.00000000000000000 0.00000000000000000 1.00000000000000000 1.00000000000000000 0.00000000000000000 -0.00000000000000000 -0.00000000000000000 1.00000000000000000 0.00000000000000000 
1 0.27118644067797049 26.99999999999999645 0.00000000000000000 0.00000000000000000 0.00000000000000000 1.00000000000000000 1.00000000000000000 0.00000000000000000 -0.00000000000000000 -0.00000000000000000 1.00000000000000000 0.00000000000000000 
1 0.27118644067797049 26.99999999999999645 0.00000000000000000 0.00000000000000000 0.00000000000000000 1.00000000000000000 1.00000000000000000 0.00000000000000000 -0.00000000000000000 -0.00000000000000000 1.00000000000000000 0.00000000000000000 
1 0.00000000000000072 27.00000000000000355 52.99999999999999289 0.00000000000000000 0.00000000000000000 1.00000000000000000 1.00000000000000000 0.00000000000000000 -0.00000000000000000 -0.00000000000000000 1.00000000000000000 0.00000000000000000 
1 0.00000000000000072 27.00000000000000355 52.99999999999999289 0.00000000000000000 0.00000000000000000 1.00000000000000000 1.00000000000000000 0.00000000000000000 -0.00000000000000000 -0.00000000000000000 1.00000000000000000 0.00000000000000000 
1 0.00000000000000072 27.00000000000000355 52.99999999999999289 0.00000000000000000 0.00000000000000000 1.00000000000000000 1.00000000000000000 0.00000000000000000 -0.00000000000000000 -0.00000000000000000 1.00000000000000000 0.00000000000000000 
1 0.00000000000000072 27.00000000000000355 52.99999999999999289 0.00000000000000000 0.00000000000000000 1.00000000000000000 1.00000000000000000 0.00000000000000000 -0.00000000000000000 -0.00000000000000000 1.00000000000000000 0.00000000000000000 
1 0.00000000000000072 27.00000000000000355 52.99999999999999289 0.00000000000000000 0.00000000000000000 1.00000000000000000 1.00000000000000000 0.00000000000000000 -0.00000000000000000 -0.00000000000000000 1.00000000000000000 0.00000000000000000 
Triangulations 0

TShapes 125
Ve
0.000000100000000
28.999999999999979 51.207684898006775 0.000000000000000
0 0

0101101
*
Ve
0.000000100000000
-29.000000000000000 43.841339735064686 0.000000000000000
0 0

0101101
*
Ed
 0.000000100000000 1 1 0
1  1 0 4.249194218775337 5.618699620150062
2  1 1 9 4.249194218775337 5.618699620150062
2  2 2 0 4.249194218775337 5.618699620150062
4 C0 1 9 2 0
0

0101000
+125 0 -124 0 *
Ve
0.000000100000000
28.999999999999979 0.000000000000000 0.000000000000000
0 0

0101101
*
Ed
 0.000000100000000 1 1 0
1  2 0 0.000000000000000 51.207684898006775
2  3 1 9 0.000000000000000 51.207684898006775
2  4 3 0 0.000000000000000 51.207684898006775
4 C0 1 9 3 0
0

0101000
+122 0 -125 0 *
Ve
0.000000100000000
-29.000000000000000 0.000000000000000 0.000000000000000
0 0

0101101
*
Ed
 0.000000100000000 1 1 0
1  3 0 0.000000000000000 43.841339735064686
2  5 1 9 0.000000000000000 43.841339735064686
2  6 4 0 0.000000000000000 43.841339735064686
4 C0 1 9 4 0
0

0101000
+124 0 -120 0 *
Ed
 0.000000100000000 1 1 0
1  4 0 0.000000000000000 57.999999999999979
2  7 1 9 0.000000000000000 57.999999999999979
2  8 5 0 0.000000000000000 57.999999999999979
4 C0 1 9 5 0
0

0101000
+120 0 -122 0 *
Wi

0101100
+123 8 +121 8 +119 8 +118 8 *
Ve
0.000000100000000
12.000000000000002 11.599999999999998 0.000000000000000
0 0

0101101
*
Ed
 0.000000100000000 1 1 0
1  5 0 0.000000000000000 6.283185307179586
2  9 6 12 0.000000000000000 6.283185307179586
2  10 6 14 0.000000000000000 6.283185307179586
0

0101000
+116 12 -116 12 *
Wi

0101100
-115 11 *
Ve
0.000000100000000
-21.999999999999993 28.600000000000005 0.000000000000000
0 0

0101101
*
Ed
 0.000000100000000 1 1 0
1  6 0 0.000000000000000 6.283185307179586
2  11 7 12 0.000000000000000 6.283185307179586
2  12 7 14 0.000000000000000 6.283185307179586
0

0101000
+113 12 -113 12 *
Wi

0101100
-112 11 *
Ve
0.000000100000000
0.000000000000008 34.000000000000000 0.000000000000000
0 0

0101101
*
Ed
 0.000000100000000 1 1 0
1  7 0 0.000000000000000 6.283185307179586
2  13 8 12 0.000000000000000 6.283185307179586
2  14 8 14 0.000000000000000 6.283185307179586
0

0101000
+110 12 -110 12 *
Wi

0101100
-109 11 *
Ve
0.000000100000000
12.000000000000011 45.600000000000001 0.000000000000000
0 0

0101101
*
Ed
 0.000000100000000 1 1 0
1  8 0 0.000000000000000 6.283185307179586
2  15 9 12 0.000000000000000 6.283185307179586
2  16 9 14 0.000000000000000 6.283185307179586
0

0101000
+107 12 -107 12 *
Wi

0101100
-106 11 *
Fa
0  0.000000100000000 1 7

0111000
+117 0 +114 0 +111 0 +108 0 +105 0 *
Ve
0.000000100000000
-20.000000000000000 48.000000000000000 0.000000000000000
0 0

0101101
*
Ed
 0.000000100000000 1 1 0
1  9 0 0.000000000000000 1.000000000000000
2  17 2 0 0.000000000000000 1.000000000000000
2  18 4 0 0.000000000000000 1.000000000000000
4 C0 2 0 4 0
0

0101000
+124 0 -103 17 *
Ve
0.000000100000000
20.000000000000000 48.000000000000000 0.000000000000000
0 0

0101101
*
Ed
 0.000000100000000 1 1 0
1  10 0 0.000000000000000 40.000000000000000
2  19 2 18 0.000000000000000 40.000000000000000
0

0101000
+101 0 -103 0 *
Ed
 0.000000100000000 1 1 0
1  11 0 0.000000000000000 1.000000000000000
2  20 2 0 0.000000000000000 1.000000000000000
2  21 3 0 0.000000000000000 1.000000000000000
4 C0 2 0 3 0
0

0101000
+125 0 -101 17 *
Wi

0101100
+123 0 +102 0 -100 17 -99 0 *
Fa
0  0.000000100000000 2 0

0111000
+98 0 *
Ve
0.000000100000000
20.000000000000000 0.000000000000000 0.000000000000000
0 0

0101101
*
Ed
 0.000000100000000 1 1 0
1  12 0 0.000000000000000 48.000000000000000
2  22 3 18 0.000000000000000 48.000000000000000
0

0101000
+96 0 -101 0 *
Ed
 0.000000100000000 1 1 0
1  13 0 0.000000000000000 1.000000000000000
2  23 5 0 0.000000000000000 1.000000000000000
2  24 3 0 0.000000000000000 1.000000000000000
4 C0 5 0 3 0
0

0101000
+122 0 -96 17 *
Wi

0101100
+121 0 +99 0 -95 17 -94 0 *
Fa
0  0.000000100000000 3 0

0111000
+93 0 *
Ve
0.000000100000000
-20.000000000000000 0.000000000000000 0.000000000000000
0 0

0101101
*
Ed
 0.000000100000000 1 1 0
1  14 0 0.000000000000000 1.000000000000000
2  25 4 0 0.000000000000000 1.000000000000000
2  26 5 0 0.000000000000000 1.000000000000000
4 C0 4 0 5 0
0

0101000
+120 0 -91 17 *
Ed
 0.000000100000000 1 1 0
1  15 0 0.000000000000000 48.000000000000000
2  27 4 18 0.000000000000000 48.000000000000000
0

0101000
+103 0 -91 0 *
Wi

0101100
+119 0 +90 0 -89 17 -102 0 *
Fa
0  0.000000100000000 4 0

0111000
+88 0 *
Ed
 0.000000100000000 1 1 0
1  16 0 0.000000000000000 40.000000000000000
2  28 5 18 0.000000000000000 40.000000000000000
0

0101000
+91 0 -96 0 *
Wi

0101100
+118 0 +94 0 -86 17 -90 0 *
Fa
0  0.000000100000000 5 0

0111000
+85 0 *
Ve
0.000000100000000
11.600000000000000 -12.000000000000000 0.000000000000000
0 0

0101101
*
Ed
 0.000000100000000 1 1 0
1  17 0 0.000000000000000 7.000000000000000
3  29 30CN 6 0 0.000000000000000 7.000000000000000
0

0101000
+116 0 -83 19 *
Ed
 0.000000100000000 1 1 0
1  5 0 0.000000000000000 6.283185307179586
2  9 6 12 0.000000000000000 6.283185307179586
2  10 6 14 0.000000000000000 6.283185307179586
0

0101100
+83 0 -83 0 *
Wi

0101100
+82 0 -82 0 -115 11 +81 19 *
Fa
0  0.000000100000000 6 0

0111000
+80 0 *
Ve
0.000000100000000
28.600000000000001 22.000000000000000 0.000000000000000
0 0

0101101
*
Ed
 0.000000100000000 1 1 0
1  18 0 0.000000000000000 7.000000000000000
3  31 32CN 7 0 0.000000000000000 7.000000000000000
0

0101000
+113 0 -78 19 *
Ed
 0.000000100000000 1 1 0
1  6 0 0.000000000000000 6.283185307179586
2  11 7 12 0.000000000000000 6.283185307179586
2  12 7 14 0.000000000000000 6.283185307179586
0

0101100
+78 0 -78 0 *
Wi

0101100
+77 0 -77 0 -112 11 +76 19 *
Fa
0  0.000000100000000 7 0

0111000
+75 0 *
Ve
0.000000100000000
34.000000000000000 0.000000000000000 0.000000000000000
0 0

0101101
*
Ed
 0.000000100000000 1 1 0
1  19 0 0.000000000000000 7.000000000000000
3  33 34CN 8 0 0.000000000000000 7.000000000000000
0

0101000
+110 0 -73 19 *
Ed
 0.000000100000000 1 1 0
1  7 0 0.000000000000000 6.283185307179586
2  13 8 12 0.000000000000000 6.283185307179586
2  14 8 14 0.000000000000000 6.283185307179586
0

0101100
+73 0 -73 0 *
Wi

0101100
+72 0 -72 0 -109 11 +71 19 *
Fa
0  0.000000100000000 8 0

0111000
+70 0 *
Ve
0.000000100000000
45.600000000000001 -12.000000000000000 0.000000000000000
0 0

0101101
*
Ed
 0.000000100000000 1 1 0
1  20 0 0.000000000000000 7.000000000000000
3  35 36CN 9 0 0.000000000000000 7.000000000000000
0

0101000
+107 0 -68 19 *
Ed
 0.000000100000000 1 1 0
1  8 0 0.000000000000000 6.283185307179586
2  15 9 12 0.000000000000000 6.283185307179586
2  16 9 14 0.000000000000000 6.283185307179586
0

0101100
+68 0 -68 0 *
Wi

0101100
+67 0 -67 0 -106 11 +66 19 *
Fa
0  0.000000100000000 9 0

0111000
+65 0 *
Wi

0101100
+89 22 +100 22 +86 22 +95 22 *
Ve
0.000000100000000
-13.749999999999996 11.500000000000000 53.000000000000000
0 0

0101101
*
Ed
 0.000000100000000 1 1 0
1  21 0 0.000000000000000 6.283185307179586
2  37 11 26 0.000000000000000 6.283185307179586
2  38 11 28 0.000000000000000 6.283185307179586
0

0101000
+62 26 -62 26 *
Wi

0101100
-61 25 *
Ve
0.000000100000000
17.250000000000004 11.500000000000000 53.000000000000000
0 0

0101101
*
Ed
 0.000000100000000 1 1 0
1  22 0 0.000000000000000 6.283185307179586
2  39 12 26 0.000000000000000 6.283185307179586
2  40 12 28 0.000000000000000 6.283185307179586
0

0101000
+59 26 -59 26 *
Wi

0101100
-58 25 *
Ve
0.000000100000000
12.000000000000000 27.000000000000000 53.000000000000000
0 0

0101101
*
Ed
 0.000000100000000 1 1 0
1  23 0 0.000000000000000 6.283185307179586
2  41 13 26 0.000000000000000 6.283185307179586
2  42 13 28 0.000000000000000 6.283185307179586
0

0101000
+56 26 -56 26 *
Wi

0101100
-55 25 *
Ve
0.000000100000000
-13.749999999999996 42.500000000000000 53.000000000000000
0 0

0101101
*
Ed
 0.000000100000000 1 1 0
1  24 0 0.000000000000000 6.283185307179586
2  43 14 26 0.000000000000000 6.283185307179586
2  44 14 28 0.000000000000000 6.283185307179586
0

0101000
+53 26 -53 26 *
Wi

0101100
-52 25 *
Ve
0.000000100000000
17.250000000000004 42.500000000000000 53.000000000000000
0 0

0101101
*
Ed
 0.000000100000000 1 1 0
1  25 0 0.000000000000000 6.283185307179586
2  45 15 26 0.000000000000000 6.283185307179586
2  46 15 28 0.000000000000000 6.283185307179586
0

0101000
+50 26 -50 26 *
Wi

0101100
-49 25 *
Fa
0  0.000000100000000 10 21

0111000
+63 0 +60 0 +57 0 +54 0 +51 0 +48 0 *
Wi

0101100
+81 10 *
Fa
0  0.000000100000000 16 0

0111000
+46 0 *
Wi

0101100
+76 10 *
Fa
0  0.000000100000000 17 0

0111000
+44 0 *
Wi

0101100
+71 10 *
Fa
0  0.000000100000000 18 0

0111000
+42 0 *
Wi

0101100
+66 10 *
Fa
0  0.000000100000000 19 0

0111000
+40 0 *
Ve
0.000000100000000
-13.749999999999996 11.500000000000000 0.000000000000000
0 0

0101101
*
Ed
 0.000000100000000 1 1 0
1  26 0 0.000000000000000 10.000000000000000
3  47 48CN 11 0 0.000000000000000 10.000000000000000
0

0101000
+62 0 -38 30 *
Ed
 0.000000100000000 1 1 0
1  21 0 0.000000000000000 6.283185307179586
2  37 11 26 0.000000000000000 6.283185307179586
2  38 11 28 0.000000000000000 6.283185307179586
0

0101100
+38 0 -38 0 *
Wi

0101100
+37 0 -37 0 -61 25 +36 30 *
Fa
0  0.000000100000000 11 0

0111000
+35 0 *
Ve
0.000000100000000
17.250000000000004 11.500000000000000 0.000000000000000
0 0

0101101
*
Ed
 0.000000100000000 1 1 0
1  27 0 0.000000000000000 10.000000000000000
3  49 50CN 12 0 0.000000000000000 10.000000000000000
0

0101000
+59 0 -33 30 *
Ed
 0.000000100000000 1 1 0
1  22 0 0.000000000000000 6.283185307179586
2  39 12 26 0.000000000000000 6.283185307179586
2  40 12 28 0.000000000000000 6.283185307179586
0

0101100
+33 0 -33 0 *
Wi

0101100
+32 0 -32 0 -58 25 +31 30 *
Fa
0  0.000000100000000 12 0

0111000
+30 0 *
Ve
0.000000100000000
12.000000000000000 27.000000000000000 0.000000000000000
0 0

0101101
*
Ed
 0.000000100000000 1 1 0
1  28 0 0.000000000000000 10.000000000000000
3  51 52CN 13 0 0.000000000000000 10.000000000000000
0

0101000
+56 0 -28 30 *
Ed
 0.000000100000000 1 1 0
1  23 0 0.000000000000000 6.283185307179586
2  41 13 26 0.000000000000000 6.283185307179586
2  42 13 28 0.000000000000000 6.283185307179586
0

0101100
+28 0 -28 0 *
Wi

0101100
+27 0 -27 0 -55 25 +26 30 *
Fa
0  0.000000100000000 13 0

0111000
+25 0 *
Ve
0.000000100000000
-13.749999999999996 42.500000000000000 0.000000000000000
0 0

0101101
*
Ed
 0.000000100000000 1 1 0
1  29 0 0.000000000000000 10.000000000000000
3  53 54CN 14 0 0.000000000000000 10.000000000000000
0

0101000
+53 0 -23 30 *
Ed
 0.000000100000000 1 1 0
1  24 0 0.000000000000000 6.283185307179586
2  43 14 26 0.000000000000000 6.283185307179586
2  44 14 28 0.000000000000000 6.283185307179586
0

0101100
+23 0 -23 0 *
Wi

0101100
+22 0 -22 0 -52 25 +21 30 *
Fa
0  0.000000100000000 14 0

0111000
+20 0 *
Ve
0.000000100000000
17.250000000000004 42.500000000000000 0.000000000000000
0 0

0101101
*
Ed
 0.000000100000000 1 1 0
1  30 0 0.000000000000000 10.000000000000000
3  55 56CN 15 0 0.000000000000000 10.000000000000000
0

0101000
+50 0 -18 30 *
Ed
 0.000000100000000 1 1 0
1  25 0 0.000000000000000 6.283185307179586
2  45 15 26 0.000000000000000 6.283185307179586
2  46 15 28 0.000000000000000 6.283185307179586
0

0101100
+18 0 -18 0 *
Wi

0101100
+17 0 -17 0 -49 25 +16 30 *
Fa
0  0.000000100000000 15 0

0111000
+15 0 *
Wi

0101100
+36 0 *
Fa
0  0.000000100000000 20 0

0111000
+13 32 *
Wi

0101100
+31 0 *
Fa
0  0.000000100000000 21 0

0111000
+11 32 *
Wi

0101100
+26 0 *
Fa
0  0.000000100000000 22 0

0111000
+9 32 *
Wi

0101100
+21 0 *
Fa
0  0.000000100000000 23 0

0111000
+7 32 *
Wi

0101100
+16 0 *
Fa
0  0.000000100000000 24 0

0111000
+5 32 *
Sh

0101100
-104 0 +97 8 +92 8 +87 8 +84 8 +79 0 +74 0 +69 0 +64 0 +47 20 
-45 29 -43 29 -41 29 -39 29 -34 20 -29 20 -24 20 -19 20 -14 20 +12 31 
+10 31 +8 31 +6 31 +4 31 *
So

0100000
+3 0 *
Co

1100000
+2 0 *

+1 1 