
CASCADE Topology V1, (c) Matra-Datavision
Locations 42
1
1.000000000000000 0.000000000000000 0.000000000000000 0.000000000000000 
0.000000000000000 1.000000000000000 0.000000000000000 0.000000000000000 
0.000000000000000 0.000000000000000 1.000000000000000 0.000000000000000 
1
1.000000000000000 0.000000000000000 0.000000000000000 0.000000000000000 
0.000000000000000 1.000000000000000 0.000000000000000 0.000000000000000 
0.000000000000000 0.000000000000000 1.000000000000000 0.000000000000000 
1
1.000000000000000 0.000000000000000 0.000000000000000 0.000000000000000 
0.000000000000000 1.000000000000000 0.000000000000000 0.000000000000000 
0.000000000000000 0.000000000000000 1.000000000000000 0.000000000000000 
1
1.000000000000000 0.000000000000000 0.000000000000000 0.000000000000000 
0.000000000000000 1.000000000000000 0.000000000000000 0.000000000000000 
0.000000000000000 0.000000000000000 1.000000000000000 0.000000000000000 
1
1.000000000000000 0.000000000000000 0.000000000000000 0.000000000000000 
0.000000000000000 1.000000000000000 0.000000000000000 0.000000000000000 
0.000000000000000 0.000000000000000 1.000000000000000 0.000000000000000 
1
1.000000000000000 0.000000000000000 0.000000000000000 0.000000000000000 
0.000000000000000 1.000000000000000 0.000000000000000 0.000000000000000 
0.000000000000000 0.000000000000000 1.000000000000000 0.000000000000000 
1
1.000000000000000 0.000000000000000 0.000000000000000 0.000000000000000 
0.000000000000000 1.000000000000000 0.000000000000000 0.000000000000000 
0.000000000000000 0.000000000000000 1.000000000000000 0.000000000000000 
1
1.000000000000000 0.000000000000000 0.000000000000000 0.000000000000000 
0.000000000000000 1.000000000000000 0.000000000000000 0.000000000000000 
0.000000000000000 0.000000000000000 1.000000000000000 0.000000000000000 
2  2 -1 3 1 4 -1 5 1 6 -1 7 1 8 -1 0
2  3 1 4 -1 5 1 6 -1 7 1 8 -1 0
2  2 -1 0
1
0.000000000000000 -1.000000000000000 0.000000000000000 0.000000000000000 
1.000000000000000 0.000000000000000 0.000000000000000 0.000000000000000 
0.000000000000000 0.000000000000000 1.000000000000000 0.000000000000000 
2  12 1 6 -1 7 1 8 -1 0
2  6 1 12 -1 0
1
1.000000000000000 0.000000000000000 0.000000000000000 0.000000000000000 
0.000000000000000 1.000000000000000 0.000000000000000 0.000000000000000 
0.000000000000000 0.000000000000000 1.000000000000000 7.000000000000000 
2  15 -1 6 1 12 -1 0
2  12 1 8 -1 0
2  8 1 12 -1 0
1
1.000000000000000 0.000000000000000 0.000000000000000 0.000000000000000 
0.000000000000000 1.000000000000000 0.000000000000000 0.000000000000000 
0.000000000000000 0.000000000000000 1.000000000000000 4.000000000000000 
2  19 -1 8 1 12 -1 0
1
1.000000000000000 0.000000000000000 0.000000000000000 0.000000000000000 
0.000000000000000 1.000000000000000 0.000000000000000 0.000000000000000 
0.000000000000000 0.000000000000000 1.000000000000000 0.000000000000000 
1
1.000000000000000 0.000000000000000 0.000000000000000 0.000000000000000 
0.000000000000000 1.000000000000000 0.000000000000000 0.000000000000000 
0.000000000000000 0.000000000000000 1.000000000000000 53.000000000000000 
2  21 1 22 1 2 -1 0
2  2 1 22 -1 21 -1 0
2  7 1 8 -1 0
2  12 1 6 -1 15 1 0
2  12 1 6 -1 0
2  12 1 8 -1 19 1 0
2  5 1 6 -1 7 1 8 -1 0
2  3 1 4 -1 0
2  21 1 22 1 2 -1 3 1 4 -1 0
1
1.000000000000000 0.000000000000000 0.000000000000000 0.000000000000000 
0.000000000000000 1.000000000000000 0.000000000000000 0.000000000000000 
0.000000000000000 0.000000000000000 1.000000000000000 0.000000000000000 
1
1.000000000000000 0.000000000000000 0.000000000000000 0.000000000000000 
0.000000000000000 1.000000000000000 0.000000000000000 0.000000000000000 
0.000000000000000 0.000000000000000 1.000000000000000 53.000000000000000 
2  32 1 33 1 4 -1 0
2  4 1 33 -1 32 -1 0
1
1.000000000000000 0.000000000000000 0.000000000000000 -0.000000000000000 
0.000000000000000 1.000000000000000 0.000000000000000 -0.000000000000000 
0.000000000000000 0.000000000000000 1.000000000000000 -10.000000000000000 
2  36 -1 4 1 33 -1 32 -1 0
2  6 -1 15 1 7 1 8 -1 0
2  8 -1 19 1 0
2  32 1 33 1 4 -1 36 1 0
2  4 -1 36 1 5 1 6 -1 7 1 8 -1 0
2  32 1 33 1 0
Curve2ds 64
3 7.14074786057466326 2.44225521783479849 -1.00000000000000000 -0.00000000000000009 0.00000000000000009 -1.00000000000000000 47.00000000000000000 26.50000000000000355
7 0 0  1 2 2  0.00000000000000000 0.00000000000000000  40.00000000000000000 0.00000000000000000 
 4.24919421877533665 2 5.61869962015006230 2
1 28.14074786057464195 -25.05774478216520151 0.00000000000000000 1.00000000000000000 
1 0.00000000000000000 0.00000000000000000 1.00000000000000000 0.00000000000000000 
1 -29.85925213942533674 18.78359495289948455 0.00000000000000000 -1.00000000000000000 
7 0 0  1 2 2  0.00000000000000000 0.00000000000000000  48.00000000000000000 0.00000000000000000 
 0.00000000000000000 2 43.84133973506468607 2
1 -29.85925213942533674 -25.05774478216520151 1.00000000000000000 0.00000000000000000 
1 0.00000000000000000 0.00000000000000000 1.00000000000000000 0.00000000000000000 
1 0.00000000000000000 0.00000000000000000 1.00000000000000000 0.00000000000000000 
1 0.00000000000000000 -7.00000000000000000 1.00000000000000000 0.00000000000000000 
1 0.00000000000000000 0.00000000000000000 1.00000000000000000 0.00000000000000000 
1 0.00000000000000000 -4.00000000000000000 1.00000000000000000 0.00000000000000000 
1 0.00000000000000000 0.00000000000000000 1.00000000000000000 0.00000000000000000 
1 0.00000000000000000 -7.00000000000000000 1.00000000000000000 0.00000000000000000 
1 0.00000000000000000 0.00000000000000000 1.00000000000000000 0.00000000000000000 
1 0.00000000000000000 -7.00000000000000000 1.00000000000000000 0.00000000000000000 
1 0.00000000000000000 0.00000000000000000 1.00000000000000000 0.00000000000000000 
1 0.00000000000000000 -7.00000000000000000 1.00000000000000000 0.00000000000000000 
1 0.00000000000000000 0.00000000000000000 1.00000000000000000 0.00000000000000000 
1 0.00000000000000000 -4.00000000000000000 1.00000000000000000 0.00000000000000000 
1 40.00000000000000000 0.00000000000000000 0.00000000000000000 1.00000000000000000 
1 0.00000000000000000 0.00000000000000000 0.00000000000000000 1.00000000000000000 
1 0.00000000000000000 1.00000000000000000 1.00000000000000000 0.00000000000000000 
1 0.00000000000000000 0.00000000000000000 0.00000000000000000 1.00000000000000000 
1 51.20768489800677514 0.00000000000000000 0.00000000000000000 1.00000000000000000 
7 0 0  1 2 2  0.00000000000000000 1.00000000000000000  51.20768489800677514 1.00000000000000000 
 0.00000000000000000 2 48.00000000000000000 2
1 57.99999999999997868 0.00000000000000000 0.00000000000000000 1.00000000000000000 
1 0.00000000000000000 0.00000000000000000 0.00000000000000000 1.00000000000000000 
1 48.00000000000000000 0.00000000000000000 0.00000000000000000 1.00000000000000000 
1 0.00000000000000000 0.00000000000000000 0.00000000000000000 1.00000000000000000 
1 0.00000000000000000 1.00000000000000000 1.00000000000000000 0.00000000000000000 
7 0 0  1 2 2  0.00000000000000000 1.00000000000000000  57.99999999999997868 1.00000000000000000 
 0.00000000000000000 2 40.00000000000000000 2
1 0.00000000000000000 0.00000000000000000 0.00000000000000000 -1.00000000000000000 
1 6.28318530717958623 0.00000000000000000 0.00000000000000000 -1.00000000000000000 
1 0.00000000000000000 0.00000000000000000 0.00000000000000000 -1.00000000000000000 
1 6.28318530717958623 0.00000000000000000 0.00000000000000000 -1.00000000000000000 
1 0.00000000000000000 0.00000000000000000 0.00000000000000000 -1.00000000000000000 
1 6.28318530717958623 0.00000000000000000 0.00000000000000000 -1.00000000000000000 
1 0.00000000000000000 0.00000000000000000 0.00000000000000000 -1.00000000000000000 
1 6.28318530717958623 0.00000000000000000 0.00000000000000000 -1.00000000000000000 
1 0.00000000000000000 0.00000000000000000 0.00000000000000000 -1.00000000000000000 
1 6.28318530717958623 0.00000000000000000 0.00000000000000000 -1.00000000000000000 
1 0.00000000000000000 0.00000000000000000 0.00000000000000000 -1.00000000000000000 
1 6.28318530717958623 0.00000000000000000 0.00000000000000000 -1.00000000000000000 
1 0.00000000000000000 0.00000000000000000 1.00000000000000000 0.00000000000000000 
1 0.00000000000000000 -10.00000000000000000 1.00000000000000000 0.00000000000000000 
1 0.00000000000000000 0.00000000000000000 1.00000000000000000 0.00000000000000000 
1 0.00000000000000000 -10.00000000000000000 1.00000000000000000 0.00000000000000000 
1 0.00000000000000000 0.00000000000000000 1.00000000000000000 0.00000000000000000 
1 0.00000000000000000 -10.00000000000000000 1.00000000000000000 0.00000000000000000 
1 0.00000000000000000 0.00000000000000000 1.00000000000000000 0.00000000000000000 
1 0.00000000000000000 -10.00000000000000000 1.00000000000000000 0.00000000000000000 
1 0.00000000000000000 0.00000000000000000 1.00000000000000000 0.00000000000000000 
1 0.00000000000000000 -10.00000000000000000 1.00000000000000000 0.00000000000000000 
1 0.00000000000000000 0.00000000000000000 0.00000000000000000 -1.00000000000000000 
1 6.28318530717958623 0.00000000000000000 0.00000000000000000 -1.00000000000000000 
1 0.00000000000000000 0.00000000000000000 0.00000000000000000 -1.00000000000000000 
1 6.28318530717958623 0.00000000000000000 0.00000000000000000 -1.00000000000000000 
1 0.00000000000000000 0.00000000000000000 0.00000000000000000 -1.00000000000000000 
1 6.28318530717958623 0.00000000000000000 0.00000000000000000 -1.00000000000000000 
1 0.00000000000000000 0.00000000000000000 0.00000000000000000 -1.00000000000000000 
1 6.28318530717958623 0.00000000000000000 0.00000000000000000 -1.00000000000000000 
1 0.00000000000000000 0.00000000000000000 0.00000000000000000 -1.00000000000000000 
1 6.28318530717958623 0.00000000000000000 0.00000000000000000 -1.00000000000000000 
Curves 34
3 8.00000000000000000 27.50000000000000000 0.00000000000000000 0.00000000000000000 0.00000000000000000 1.00000000000000000 -1.00000000000000000 -0.00000000000000009 0.00000000000000000 0.00000000000000009 -1.00000000000000000 0.00000000000000000 47.00000000000000000 26.50000000000000355
1 28.99999999999997868 0.00000000000000000 0.00000000000000000 0.00000000000000000 1.00000000000000000 0.00000000000000000 
1 -29.00000000000000000 43.84133973506468607 0.00000000000000000 0.00000000000000000 -1.00000000000000000 0.00000000000000000 
1 -29.00000000000000000 0.00000000000000000 0.00000000000000000 1.00000000000000000 0.00000000000000000 0.00000000000000000 
2 10.00000000000000000 -12.00000000000000000 0.00000000000000000 0.00000000000000000 0.00000000000000000 1.00000000000000000 1.00000000000000000 0.00000000000000000 -0.00000000000000000 -0.00000000000000000 1.00000000000000000 0.00000000000000000 1.60000000000000009
2 11.99999999999999645 -22.00000000000000000 0.00000000000000000 0.00000000000000000 0.00000000000000000 1.00000000000000000 1.00000000000000000 0.00000000000000000 -0.00000000000000000 -0.00000000000000000 1.00000000000000000 0.00000000000000000 3.00000000000000000
2 27.00000000000000000 22.00000000000000000 0.00000000000000000 0.00000000000000000 0.00000000000000000 1.00000000000000000 1.00000000000000000 0.00000000000000000 -0.00000000000000000 -0.00000000000000000 1.00000000000000000 0.00000000000000000 1.60000000000000009
2 27.00000000000000000 0.00000000000000000 0.00000000000000000 0.00000000000000000 0.00000000000000000 1.00000000000000000 1.00000000000000000 0.00000000000000000 -0.00000000000000000 -0.00000000000000000 1.00000000000000000 0.00000000000000000 7.00000000000000000
2 44.00000000000000000 -12.00000000000000000 0.00000000000000000 0.00000000000000000 0.00000000000000000 1.00000000000000000 1.00000000000000000 0.00000000000000000 -0.00000000000000000 -0.00000000000000000 1.00000000000000000 0.00000000000000000 1.60000000000000009
2 42.00000000000000000 -22.00000000000000000 0.00000000000000000 0.00000000000000000 0.00000000000000000 1.00000000000000000 1.00000000000000000 0.00000000000000000 -0.00000000000000000 -0.00000000000000000 1.00000000000000000 0.00000000000000000 3.00000000000000000
7 0 0  1 2 2  -29.00000000000000000 43.84133973506467896 0.00000000000000000  -20.00000000000000000 48.00000000000000000 53.00000000000000000 
 0.00000000000000000 2 1.00000000000000000 2
1 20.00000000000000000 48.00000000000000000 0.00000000000000000 -1.00000000000000000 0.00000000000000000 0.00000000000000000 
7 0 0  1 2 2  28.99999999999997868 51.20768489800676804 0.00000000000000000  20.00000000000000000 48.00000000000000000 53.00000000000000000 
 0.00000000000000000 2 1.00000000000000000 2
1 20.00000000000000000 0.00000000000000000 0.00000000000000000 0.00000000000000000 1.00000000000000000 0.00000000000000000 
7 0 0  1 2 2  28.99999999999997868 0.00000000000000000 0.00000000000000000  20.00000000000000000 0.00000000000000000 53.00000000000000000 
 0.00000000000000000 2 1.00000000000000000 2
7 0 0  1 2 2  -29.00000000000000000 0.00000000000000000 0.00000000000000000  -20.00000000000000000 0.00000000000000000 53.00000000000000000 
 0.00000000000000000 2 1.00000000000000000 2
1 -20.00000000000000000 48.00000000000000000 0.00000000000000000 0.00000000000000000 -1.00000000000000000 0.00000000000000000 
1 -20.00000000000000000 0.00000000000000000 0.00000000000000000 1.00000000000000000 0.00000000000000000 0.00000000000000000 
1 12.00000000000000178 11.59999999999999787 0.00000000000000000 0.00000000000000000 0.00000000000000000 1.00000000000000000 
1 22.00000000000000355 14.99999999999999112 0.00000000000000000 0.00000000000000000 0.00000000000000000 1.00000000000000000 
1 -21.99999999999999289 28.60000000000000497 0.00000000000000000 0.00000000000000000 0.00000000000000000 1.00000000000000000 
1 0.00000000000000755 34.00000000000000000 0.00000000000000000 0.00000000000000000 0.00000000000000000 1.00000000000000000 
1 12.00000000000001066 45.60000000000000142 0.00000000000000000 0.00000000000000000 0.00000000000000000 1.00000000000000000 
1 22.00000000000001066 44.99999999999999289 0.00000000000000000 0.00000000000000000 0.00000000000000000 1.00000000000000000 
2 -15.49999999999999645 11.50000000000000000 0.00000000000000000 0.00000000000000000 0.00000000000000000 1.00000000000000000 1.00000000000000000 0.00000000000000000 -0.00000000000000000 -0.00000000000000000 1.00000000000000000 0.00000000000000000 1.75000000000000000
2 15.50000000000000355 11.50000000000000000 0.00000000000000000 0.00000000000000000 0.00000000000000000 1.00000000000000000 1.00000000000000000 0.00000000000000000 -0.00000000000000000 -0.00000000000000000 1.00000000000000000 0.00000000000000000 1.75000000000000000
2 0.00000000000000000 27.00000000000000000 0.00000000000000000 0.00000000000000000 0.00000000000000000 1.00000000000000000 1.00000000000000000 0.00000000000000000 -0.00000000000000000 -0.00000000000000000 1.00000000000000000 0.00000000000000000 12.00000000000000000
2 -15.49999999999999645 42.50000000000000000 0.00000000000000000 0.00000000000000000 0.00000000000000000 1.00000000000000000 1.00000000000000000 0.00000000000000000 -0.00000000000000000 -0.00000000000000000 1.00000000000000000 0.00000000000000000 1.75000000000000000
2 15.50000000000000355 42.50000000000000000 0.00000000000000000 0.00000000000000000 0.00000000000000000 1.00000000000000000 1.00000000000000000 0.00000000000000000 -0.00000000000000000 -0.00000000000000000 1.00000000000000000 0.00000000000000000 1.75000000000000000
1 -13.74999999999999645 11.50000000000000000 53.00000000000000000 -0.00000000000000000 -0.00000000000000000 -1.00000000000000000 
1 17.25000000000000355 11.50000000000000000 53.00000000000000000 -0.00000000000000000 -0.00000000000000000 -1.00000000000000000 
1 12.00000000000000000 27.00000000000000000 53.00000000000000000 -0.00000000000000000 -0.00000000000000000 -1.00000000000000000 
1 -13.74999999999999645 42.50000000000000000 53.00000000000000000 -0.00000000000000000 -0.00000000000000000 -1.00000000000000000 
1 17.25000000000000355 42.50000000000000000 53.00000000000000000 -0.00000000000000000 -0.00000000000000000 -1.00000000000000000 
Polygon3D 0
PolygonOnTriangulations 0
Surfaces 28
1 0.85925213942533696 25.05774478216520151 0.00000000000000000 0.00000000000000000 0.00000000000000000 1.00000000000000000 1.00000000000000000 0.00000000000000000 -0.00000000000000000 -0.00000000000000000 1.00000000000000000 0.00000000000000000 
9 0 0 0 0 8 1 9 2 2 2 28.99999999999997868 51.20768489800676804 0.00000000000000000  20.00000000000000000 48.00000000000000000 53.00000000000000000  
21.80194944089724984 53.23462573807315579 0.00000000000000000  15.00000000000000178 48.00000000000000000 53.00000000000000000  
13.90056836973477949 54.46755163107855680 0.00000000000000000  10.00000000000000000 48.00000000000000000 53.00000000000000000  
5.61730071817702559 54.81594865132074545 0.00000000000000000  4.99999999999999911 48.00000000000000000 53.00000000000000000  
-2.68248323974278335 54.23893965067743750 0.00000000000000000  -0.00000000000000011 48.00000000000000000 53.00000000000000000  
-10.61945331329492426 52.75378426301595880 0.00000000000000000  -5.00000000000000089 48.00000000000000000 53.00000000000000000  
-17.83779013685287040 50.43659122306710429 0.00000000000000000  -10.00000000000000178 48.00000000000000000 53.00000000000000000  
-24.03849531818425689 47.41261645327675467 0.00000000000000000  -15.00000000000000178 48.00000000000000000 53.00000000000000000  
-29.00000000000000000 43.84133973506467896 0.00000000000000000  -20.00000000000000000 48.00000000000000000 53.00000000000000000  

0.00000000000000000 9
40.00000000000000000 9

0.00000000000000000 2
1.00000000000000000 2

9 0 0 0 0 1 1 2 2 2 2 28.99999999999997868 0.00000000000000000 0.00000000000000000  20.00000000000000000 0.00000000000000000 53.00000000000000000  
28.99999999999997868 51.20768489800677514 0.00000000000000000  20.00000000000000000 48.00000000000000000 53.00000000000000000  

0.00000000000000000 2
51.20768489800677514 2

0.00000000000000000 2
1.00000000000000000 2

9 0 0 0 0 1 1 2 2 2 2 -29.00000000000000000 43.84133973506468607 0.00000000000000000  -20.00000000000000000 48.00000000000000000 53.00000000000000000  
-29.00000000000000000 0.00000000000000000 0.00000000000000000  -20.00000000000000000 0.00000000000000000 53.00000000000000000  

0.00000000000000000 2
48.00000000000000000 2

0.00000000000000000 2
1.00000000000000000 2

9 0 0 0 0 1 1 2 2 2 2 -29.00000000000000000 0.00000000000000000 0.00000000000000000  -20.00000000000000000 0.00000000000000000 53.00000000000000000  
28.99999999999997868 0.00000000000000000 0.00000000000000000  20.00000000000000000 0.00000000000000000 53.00000000000000000  

0.00000000000000000 2
57.99999999999997868 2

0.00000000000000000 2
1.00000000000000000 2

2 12.00000000000000178 9.99999999999999645 0.00000000000000000 -0.00000000000000000 0.00000000000000000 -1.00000000000000000 0.00000000000000022 1.00000000000000000 0.00000000000000000 -1.00000000000000000 0.00000000000000022 0.00000000000000000 1.60000000000000009
2 22.00000000000000355 11.99999999999999112 0.00000000000000000 -0.00000000000000000 0.00000000000000000 -1.00000000000000000 0.00000000000000022 1.00000000000000000 0.00000000000000000 -1.00000000000000000 0.00000000000000022 0.00000000000000000 3.00000000000000000
2 -21.99999999999999289 27.00000000000000355 0.00000000000000000 -0.00000000000000000 0.00000000000000000 -1.00000000000000000 0.00000000000000022 1.00000000000000000 0.00000000000000000 -1.00000000000000000 0.00000000000000022 0.00000000000000000 1.60000000000000009
2 0.00000000000000600 27.00000000000000000 0.00000000000000000 -0.00000000000000000 0.00000000000000000 -1.00000000000000000 0.00000000000000022 1.00000000000000000 0.00000000000000000 -1.00000000000000000 0.00000000000000022 0.00000000000000000 7.00000000000000000
2 12.00000000000001066 44.00000000000000000 0.00000000000000000 -0.00000000000000000 0.00000000000000000 -1.00000000000000000 0.00000000000000022 1.00000000000000000 0.00000000000000000 -1.00000000000000000 0.00000000000000022 0.00000000000000000 1.60000000000000009
2 22.00000000000001066 41.99999999999999289 0.00000000000000000 -0.00000000000000000 0.00000000000000000 -1.00000000000000000 0.00000000000000022 1.00000000000000000 0.00000000000000000 -1.00000000000000000 0.00000000000000022 0.00000000000000000 3.00000000000000000
1 0.00000000000000000 24.00000000000000000 53.00000000000000000 0.00000000000000000 0.00000000000000000 1.00000000000000000 1.00000000000000000 0.00000000000000000 -0.00000000000000000 -0.00000000000000000 1.00000000000000000 0.00000000000000000 
2 -15.49999999999999645 11.50000000000000000 53.00000000000000000 0.00000000000000000 0.00000000000000000 1.00000000000000000 1.00000000000000000 0.00000000000000000 -0.00000000000000000 -0.00000000000000000 1.00000000000000000 0.00000000000000000 1.75000000000000000
2 15.50000000000000355 11.50000000000000000 53.00000000000000000 0.00000000000000000 0.00000000000000000 1.00000000000000000 1.00000000000000000 0.00000000000000000 -0.00000000000000000 -0.00000000000000000 1.00000000000000000 0.00000000000000000 1.75000000000000000
2 0.00000000000000000 27.00000000000000000 53.00000000000000000 0.00000000000000000 0.00000000000000000 1.00000000000000000 1.00000000000000000 0.00000000000000000 -0.00000000000000000 -0.00000000000000000 1.00000000000000000 0.00000000000000000 12.00000000000000000
2 -15.49999999999999645 42.50000000000000000 53.00000000000000000 0.00000000000000000 0.00000000000000000 1.00000000000000000 1.00000000000000000 0.00000000000000000 -0.00000000000000000 -0.00000000000000000 1.00000000000000000 0.00000000000000000 1.75000000000000000
2 15.50000000000000355 42.50000000000000000 53.00000000000000000 0.00000000000000000 0.00000000000000000 1.00000000000000000 1.00000000000000000 0.00000000000000000 -0.00000000000000000 -0.00000000000000000 1.00000000000000000 0.00000000000000000 1.75000000000000000
1 0.27118644067797049 26.99999999999999645 0.00000000000000000 0.00000000000000000 0.00000000000000000 1.00000000000000000 1.00000000000000000 0.00000000000000000 -0.00000000000000000 -0.00000000000000000 1.00000000000000000 0.00000000000000000 
1 22.00000000000000355 26.99999999999998934 0.00000000000000000 0.00000000000000000 0.00000000000000000 1.00000000000000000 1.00000000000000000 0.00000000000000000 -0.00000000000000000 -0.00000000000000000 1.00000000000000000 0.00000000000000000 
1 0.27118644067797049 26.99999999999999645 0.00000000000000000 0.00000000000000000 0.00000000000000000 1.00000000000000000 1.00000000000000000 0.00000000000000000 -0.00000000000000000 -0.00000000000000000 1.00000000000000000 0.00000000000000000 
1 0.27118644067797049 26.99999999999999645 0.00000000000000000 0.00000000000000000 0.00000000000000000 1.00000000000000000 1.00000000000000000 0.00000000000000000 -0.00000000000000000 -0.00000000000000000 1.00000000000000000 0.00000000000000000 
1 0.27118644067797049 26.99999999999999645 0.00000000000000000 0.00000000000000000 0.00000000000000000 1.00000000000000000 1.00000000000000000 0.00000000000000000 -0.00000000000000000 -0.00000000000000000 1.00000000000000000 0.00000000000000000 
1 22.00000000000000355 26.99999999999998934 0.00000000000000000 0.00000000000000000 0.00000000000000000 1.00000000000000000 1.00000000000000000 0.00000000000000000 -0.00000000000000000 -0.00000000000000000 1.00000000000000000 0.00000000000000000 
1 0.00000000000000072 27.00000000000000355 52.99999999999999289 0.00000000000000000 0.00000000000000000 1.00000000000000000 1.00000000000000000 0.00000000000000000 -0.00000000000000000 -0.00000000000000000 1.00000000000000000 0.00000000000000000 
1 0.00000000000000072 27.00000000000000355 52.99999999999999289 0.00000000000000000 0.00000000000000000 1.00000000000000000 1.00000000000000000 0.00000000000000000 -0.00000000000000000 -0.00000000000000000 1.00000000000000000 0.00000000000000000 
1 0.00000000000000072 27.00000000000000355 52.99999999999999289 0.00000000000000000 0.00000000000000000 1.00000000000000000 1.00000000000000000 0.00000000000000000 -0.00000000000000000 -0.00000000000000000 1.00000000000000000 0.00000000000000000 
1 0.00000000000000072 27.00000000000000355 52.99999999999999289 0.00000000000000000 0.00000000000000000 1.00000000000000000 1.00000000000000000 0.00000000000000000 -0.00000000000000000 -0.00000000000000000 1.00000000000000000 0.00000000000000000 
1 0.00000000000000072 27.00000000000000355 52.99999999999999289 0.00000000000000000 0.00000000000000000 1.00000000000000000 1.00000000000000000 0.00000000000000000 -0.00000000000000000 -0.00000000000000000 1.00000000000000000 0.00000000000000000 
Triangulations 0

TShapes 145
Ve
0.000000100000000
28.999999999999979 51.207684898006775 0.000000000000000
0 0

0101101
*
Ve
0.000000100000000
-29.000000000000000 43.841339735064686 0.000000000000000
0 0

0101101
*
Ed
 0.000000100000000 1 1 0
1  1 0 4.249194218775337 5.618699620150062
2  1 1 11 4.249194218775337 5.618699620150062
2  2 2 0 4.249194218775337 5.618699620150062
4 C0 1 11 2 0
0

0101000
+145 0 -144 0 *
Ve
0.000000100000000
28.999999999999979 0.000000000000000 0.000000000000000
0 0

0101101
*
Ed
 0.000000100000000 1 1 0
1  2 0 0.000000000000000 51.207684898006775
2  3 1 11 0.000000000000000 51.207684898006775
2  4 3 0 0.000000000000000 51.207684898006775
4 C0 1 11 3 0
0

0101000
+142 0 -145 0 *
Ve
0.000000100000000
-29.000000000000000 0.000000000000000 0.000000000000000
0 0

0101101
*
Ed
 0.000000100000000 1 1 0
1  3 0 0.000000000000000 43.841339735064686
2  5 1 11 0.000000000000000 43.841339735064686
2  6 4 0 0.000000000000000 43.841339735064686
4 C0 1 11 4 0
0

0101000
+144 0 -140 0 *
Ed
 0.000000100000000 1 1 0
1  4 0 0.000000000000000 57.999999999999979
2  7 1 11 0.000000000000000 57.999999999999979
2  8 5 0 0.000000000000000 57.999999999999979
4 C0 1 11 5 0
0

0101000
+140 0 -142 0 *
Wi

0101100
+143 10 +141 10 +139 10 +138 10 *
Ve
0.000000100000000
12.000000000000002 11.599999999999998 0.000000000000000
0 0

0101101
*
Ed
 0.000000100000000 1 1 0
1  5 0 0.000000000000000 6.283185307179586
2  9 6 14 0.000000000000000 6.283185307179586
2  10 6 16 0.000000000000000 6.283185307179586
0

0101000
+136 14 -136 14 *
Wi

0101100
-135 13 *
Ve
0.000000100000000
22.000000000000004 14.999999999999991 0.000000000000000
0 0

0101101
*
Ed
 0.000000100000000 1 1 0
1  6 0 0.000000000000000 6.283185307179586
2  11 7 18 0.000000000000000 6.283185307179586
2  12 7 20 0.000000000000000 6.283185307179586
0

0101000
+133 18 -133 18 *
Wi

0101100
-132 17 *
Ve
0.000000100000000
-21.999999999999993 28.600000000000005 0.000000000000000
0 0

0101101
*
Ed
 0.000000100000000 1 1 0
1  7 0 0.000000000000000 6.283185307179586
2  13 8 14 0.000000000000000 6.283185307179586
2  14 8 16 0.000000000000000 6.283185307179586
0

0101000
+130 14 -130 14 *
Wi

0101100
-129 13 *
Ve
0.000000100000000
0.000000000000008 34.000000000000000 0.000000000000000
0 0

0101101
*
Ed
 0.000000100000000 1 1 0
1  8 0 0.000000000000000 6.283185307179586
2  15 9 14 0.000000000000000 6.283185307179586
2  16 9 16 0.000000000000000 6.283185307179586
0

0101000
+127 14 -127 14 *
Wi

0101100
-126 13 *
Ve
0.000000100000000
12.000000000000011 45.600000000000001 0.000000000000000
0 0

0101101
*
Ed
 0.000000100000000 1 1 0
1  9 0 0.000000000000000 6.283185307179586
2  17 10 14 0.000000000000000 6.283185307179586
2  18 10 16 0.000000000000000 6.283185307179586
0

0101000
+124 14 -124 14 *
Wi

0101100
-123 13 *
Ve
0.000000100000000
22.000000000000011 44.999999999999993 0.000000000000000
0 0

0101101
*
Ed
 0.000000100000000 1 1 0
1  10 0 0.000000000000000 6.283185307179586
2  19 11 18 0.000000000000000 6.283185307179586
2  20 11 20 0.000000000000000 6.283185307179586
0

0101000
+121 18 -121 18 *
Wi

0101100
-120 17 *
Fa
0  0.000000100000000 1 9

0111000
+137 0 +134 0 +131 0 +128 0 +125 0 +122 0 +119 0 *
Ve
0.000000100000000
-20.000000000000000 48.000000000000000 0.000000000000000
0 0

0101101
*
Ed
 0.000000100000000 1 1 0
1  11 0 0.000000000000000 1.000000000000000
2  21 2 0 0.000000000000000 1.000000000000000
2  22 4 0 0.000000000000000 1.000000000000000
4 C0 2 0 4 0
0

0101000
+144 0 -117 23 *
Ve
0.000000100000000
20.000000000000000 48.000000000000000 0.000000000000000
0 0

0101101
*
Ed
 0.000000100000000 1 1 0
1  12 0 0.000000000000000 40.000000000000000
2  23 2 24 0.000000000000000 40.000000000000000
0

0101000
+115 0 -117 0 *
Ed
 0.000000100000000 1 1 0
1  13 0 0.000000000000000 1.000000000000000
2  24 2 0 0.000000000000000 1.000000000000000
2  25 3 0 0.000000000000000 1.000000000000000
4 C0 2 0 3 0
0

0101000
+145 0 -115 23 *
Wi

0101100
+143 0 +116 0 -114 23 -113 0 *
Fa
0  0.000000100000000 2 0

0111000
+112 0 *
Ve
0.000000100000000
20.000000000000000 0.000000000000000 0.000000000000000
0 0

0101101
*
Ed
 0.000000100000000 1 1 0
1  14 0 0.000000000000000 48.000000000000000
2  26 3 24 0.000000000000000 48.000000000000000
0

0101000
+110 0 -115 0 *
Ed
 0.000000100000000 1 1 0
1  15 0 0.000000000000000 1.000000000000000
2  27 5 0 0.000000000000000 1.000000000000000
2  28 3 0 0.000000000000000 1.000000000000000
4 C0 5 0 3 0
0

0101000
+142 0 -110 23 *
Wi

0101100
+141 0 +113 0 -109 23 -108 0 *
Fa
0  0.000000100000000 3 0

0111000
+107 0 *
Ve
0.000000100000000
-20.000000000000000 0.000000000000000 0.000000000000000
0 0

0101101
*
Ed
 0.000000100000000 1 1 0
1  16 0 0.000000000000000 1.000000000000000
2  29 4 0 0.000000000000000 1.000000000000000
2  30 5 0 0.000000000000000 1.000000000000000
4 C0 4 0 5 0
0

0101000
+140 0 -105 23 *
Ed
 0.000000100000000 1 1 0
1  17 0 0.000000000000000 48.000000000000000
2  31 4 24 0.000000000000000 48.000000000000000
0

0101000
+117 0 -105 0 *
Wi

0101100
+139 0 +104 0 -103 23 -116 0 *
Fa
0  0.000000100000000 4 0

0111000
+102 0 *
Ed
 0.000000100000000 1 1 0
1  18 0 0.000000000000000 40.000000000000000
2  32 5 24 0.000000000000000 40.000000000000000
0

0101000
+105 0 -110 0 *
Wi

0101100
+138 0 +108 0 -100 23 -104 0 *
Fa
0  0.000000100000000 5 0

0111000
+99 0 *
Ve
0.000000100000000
11.600000000000000 -12.000000000000000 0.000000000000000
0 0

0101101
*
Ed
 0.000000100000000 1 1 0
1  19 0 0.000000000000000 7.000000000000000
3  33 34CN 6 0 0.000000000000000 7.000000000000000
0

0101000
+136 0 -97 26 *
Ed
 0.000000100000000 1 1 0
1  5 0 0.000000000000000 6.283185307179586
2  9 6 14 0.000000000000000 6.283185307179586
2  10 6 16 0.000000000000000 6.283185307179586
0

0101100
+97 0 -97 0 *
Wi

0101100
+96 0 -96 0 -135 27 +95 26 *
Fa
0  0.000000100000000 6 0

0111000
+94 0 *
Ve
0.000000100000000
14.999999999999996 -22.000000000000000 0.000000000000000
0 0

0101101
*
Ed
 0.000000100000000 1 1 0
1  20 0 0.000000000000000 4.000000000000000
3  35 36CN 7 0 0.000000000000000 4.000000000000000
0

0101000
+133 0 -92 28 *
Ed
 0.000000100000000 1 1 0
1  6 0 0.000000000000000 6.283185307179586
2  11 7 18 0.000000000000000 6.283185307179586
2  12 7 20 0.000000000000000 6.283185307179586
0

0101100
+92 0 -92 0 *
Wi

0101100
+91 0 -91 0 -132 17 +90 28 *
Fa
0  0.000000100000000 7 0

0111000
+89 0 *
Ve
0.000000100000000
28.600000000000001 22.000000000000000 0.000000000000000
0 0

0101101
*
Ed
 0.000000100000000 1 1 0
1  21 0 0.000000000000000 7.000000000000000
3  37 38CN 8 0 0.000000000000000 7.000000000000000
0

0101000
+130 0 -87 26 *
Ed
 0.000000100000000 1 1 0
1  7 0 0.000000000000000 6.283185307179586
2  13 8 14 0.000000000000000 6.283185307179586
2  14 8 16 0.000000000000000 6.283185307179586
0

0101100
+87 0 -87 0 *
Wi

0101100
+86 0 -86 0 -129 27 +85 26 *
Fa
0  0.000000100000000 8 0

0111000
+84 0 *
Ve
0.000000100000000
34.000000000000000 0.000000000000000 0.000000000000000
0 0

0101101
*
Ed
 0.000000100000000 1 1 0
1  22 0 0.000000000000000 7.000000000000000
3  39 40CN 9 0 0.000000000000000 7.000000000000000
0

0101000
+127 0 -82 26 *
Ed
 0.000000100000000 1 1 0
1  8 0 0.000000000000000 6.283185307179586
2  15 9 14 0.000000000000000 6.283185307179586
2  16 9 16 0.000000000000000 6.283185307179586
0

0101100
+82 0 -82 0 *
Wi

0101100
+81 0 -81 0 -126 27 +80 26 *
Fa
0  0.000000100000000 9 0

0111000
+79 0 *
Ve
0.000000100000000
45.600000000000001 -12.000000000000000 0.000000000000000
0 0

0101101
*
Ed
 0.000000100000000 1 1 0
1  23 0 0.000000000000000 7.000000000000000
3  41 42CN 10 0 0.000000000000000 7.000000000000000
0

0101000
+124 0 -77 26 *
Ed
 0.000000100000000 1 1 0
1  9 0 0.000000000000000 6.283185307179586
2  17 10 14 0.000000000000000 6.283185307179586
2  18 10 16 0.000000000000000 6.283185307179586
0

0101100
+77 0 -77 0 *
Wi

0101100
+76 0 -76 0 -123 27 +75 26 *
Fa
0  0.000000100000000 10 0

0111000
+74 0 *
Ve
0.000000100000000
45.000000000000000 -22.000000000000000 0.000000000000000
0 0

0101101
*
Ed
 0.000000100000000 1 1 0
1  24 0 0.000000000000000 4.000000000000000
3  43 44CN 11 0 0.000000000000000 4.000000000000000
0

0101000
+121 0 -72 28 *
Ed
 0.000000100000000 1 1 0
1  10 0 0.000000000000000 6.283185307179586
2  19 11 18 0.000000000000000 6.283185307179586
2  20 11 20 0.000000000000000 6.283185307179586
0

0101100
+72 0 -72 0 *
Wi

0101100
+71 0 -71 0 -120 17 +70 28 *
Fa
0  0.000000100000000 11 0

0111000
+69 0 *
Wi

0101100
+103 31 +114 31 +100 31 +109 31 *
Ve
0.000000100000000
-13.749999999999996 11.500000000000000 53.000000000000000
0 0

0101101
*
Ed
 0.000000100000000 1 1 0
1  25 0 0.000000000000000 6.283185307179586
2  45 13 35 0.000000000000000 6.283185307179586
2  46 13 37 0.000000000000000 6.283185307179586
0

0101000
+66 35 -66 35 *
Wi

0101100
-65 34 *
Ve
0.000000100000000
17.250000000000004 11.500000000000000 53.000000000000000
0 0

0101101
*
Ed
 0.000000100000000 1 1 0
1  26 0 0.000000000000000 6.283185307179586
2  47 14 35 0.000000000000000 6.283185307179586
2  48 14 37 0.000000000000000 6.283185307179586
0

0101000
+63 35 -63 35 *
Wi

0101100
-62 34 *
Ve
0.000000100000000
12.000000000000000 27.000000000000000 53.000000000000000
0 0

0101101
*
Ed
 0.000000100000000 1 1 0
1  27 0 0.000000000000000 6.283185307179586
2  49 15 35 0.000000000000000 6.283185307179586
2  50 15 37 0.000000000000000 6.283185307179586
0

0101000
+60 35 -60 35 *
Wi

0101100
-59 34 *
Ve
0.000000100000000
-13.749999999999996 42.500000000000000 53.000000000000000
0 0

0101101
*
Ed
 0.000000100000000 1 1 0
1  28 0 0.000000000000000 6.283185307179586
2  51 16 35 0.000000000000000 6.283185307179586
2  52 16 37 0.000000000000000 6.283185307179586
0

0101000
+57 35 -57 35 *
Wi

0101100
-56 34 *
Ve
0.000000100000000
17.250000000000004 42.500000000000000 53.000000000000000
0 0

0101101
*
Ed
 0.000000100000000 1 1 0
1  29 0 0.000000000000000 6.283185307179586
2  53 17 35 0.000000000000000 6.283185307179586
2  54 17 37 0.000000000000000 6.283185307179586
0

0101000
+54 35 -54 35 *
Wi

0101100
-53 34 *
Fa
0  0.000000100000000 12 30

0111000
+67 0 +64 0 +61 0 +58 0 +55 0 +52 0 *
Wi

0101100
+95 12 *
Fa
0  0.000000100000000 18 0

0111000
+50 0 *
Wi

0101100
+90 12 *
Fa
0  0.000000100000000 19 0

0111000
+48 0 *
Wi

0101100
+85 12 *
Fa
0  0.000000100000000 20 0

0111000
+46 0 *
Wi

0101100
+80 12 *
Fa
0  0.000000100000000 21 0

0111000
+44 0 *
Wi

0101100
+75 12 *
Fa
0  0.000000100000000 22 0

0111000
+42 0 *
Wi

0101100
+70 12 *
Fa
0  0.000000100000000 23 0

0111000
+40 0 *
Ve
0.000000100000000
-13.749999999999996 11.500000000000000 0.000000000000000
0 0

0101101
*
Ed
 0.000000100000000 1 1 0
1  30 0 0.000000000000000 10.000000000000000
3  55 56CN 13 0 0.000000000000000 10.000000000000000
0

0101000
+66 0 -38 40 *
Ed
 0.000000100000000 1 1 0
1  25 0 0.000000000000000 6.283185307179586
2  45 13 35 0.000000000000000 6.283185307179586
2  46 13 37 0.000000000000000 6.283185307179586
0

0101100
+38 0 -38 0 *
Wi

0101100
+37 0 -37 0 -65 34 +36 40 *
Fa
0  0.000000100000000 13 0

0111000
+35 0 *
Ve
0.000000100000000
17.250000000000004 11.500000000000000 0.000000000000000
0 0

0101101
*
Ed
 0.000000100000000 1 1 0
1  31 0 0.000000000000000 10.000000000000000
3  57 58CN 14 0 0.000000000000000 10.000000000000000
0

0101000
+63 0 -33 40 *
Ed
 0.000000100000000 1 1 0
1  26 0 0.000000000000000 6.283185307179586
2  47 14 35 0.000000000000000 6.283185307179586
2  48 14 37 0.000000000000000 6.283185307179586
0

0101100
+33 0 -33 0 *
Wi

0101100
+32 0 -32 0 -62 34 +31 40 *
Fa
0  0.000000100000000 14 0

0111000
+30 0 *
Ve
0.000000100000000
12.000000000000000 27.000000000000000 0.000000000000000
0 0

0101101
*
Ed
 0.000000100000000 1 1 0
1  32 0 0.000000000000000 10.000000000000000
3  59 60CN 15 0 0.000000000000000 10.000000000000000
0

0101000
+60 0 -28 40 *
Ed
 0.000000100000000 1 1 0
1  27 0 0.000000000000000 6.283185307179586
2  49 15 35 0.000000000000000 6.283185307179586
2  50 15 37 0.000000000000000 6.283185307179586
0

0101100
+28 0 -28 0 *
Wi

0101100
+27 0 -27 0 -59 34 +26 40 *
Fa
0  0.000000100000000 15 0

0111000
+25 0 *
Ve
0.000000100000000
-13.749999999999996 42.500000000000000 0.000000000000000
0 0

0101101
*
Ed
 0.000000100000000 1 1 0
1  33 0 0.000000000000000 10.000000000000000
3  61 62CN 16 0 0.000000000000000 10.000000000000000
0

0101000
+57 0 -23 40 *
Ed
 0.000000100000000 1 1 0
1  28 0 0.000000000000000 6.283185307179586
2  51 16 35 0.000000000000000 6.283185307179586
2  52 16 37 0.000000000000000 6.283185307179586
0

0101100
+23 0 -23 0 *
Wi

0101100
+22 0 -22 0 -56 34 +21 40 *
Fa
0  0.000000100000000 16 0

0111000
+20 0 *
Ve
0.000000100000000
17.250000000000004 42.500000000000000 0.000000000000000
0 0

0101101
*
Ed
 0.000000100000000 1 1 0
1  34 0 0.000000000000000 10.000000000000000
3  63 64CN 17 0 0.000000000000000 10.000000000000000
0

0101000
+54 0 -18 40 *
Ed
 0.000000100000000 1 1 0
1  29 0 0.000000000000000 6.283185307179586
2  53 17 35 0.000000000000000 6.283185307179586
2  54 17 37 0.000000000000000 6.283185307179586
0

0101100
+18 0 -18 0 *
Wi

0101100
+17 0 -17 0 -53 34 +16 40 *
Fa
0  0.000000100000000 17 0

0111000
+15 0 *
Wi

0101100
+36 0 *
Fa
0  0.000000100000000 24 0

0111000
+13 42 *
Wi

0101100
+31 0 *
Fa
0  0.000000100000000 25 0

0111000
+11 42 *
Wi

0101100
+26 0 *
Fa
0  0.000000100000000 26 0

0111000
+9 42 *
Wi

0101100
+21 0 *
Fa
0  0.000000100000000 27 0

0111000
+7 42 *
Wi

0101100
+16 0 *
Fa
0  0.000000100000000 28 0

0111000
+5 42 *
Sh

0101100
-118 0 +111 10 +106 10 +101 10 +98 10 +93 25 +88 0 +83 25 +78 25 +73 25 
+68 0 +51 29 -49 38 -47 39 -45 38 -43 38 -41 38 -39 39 -34 29 -29 29 
-24 29 -19 29 -14 29 +12 41 +10 41 +8 41 +6 41 +4 41 *
So

0100000
+3 0 *
Co

1100000
+2 0 *

+1 1 