
CASCADE Topology V1, (c) Matra-Datavision
Locations 9
1
0.000000000000000 -1.000000000000000 0.000000000000000 0.000000000000000 
1.000000000000000 0.000000000000000 0.000000000000000 0.000000000000000 
0.000000000000000 0.000000000000000 1.000000000000000 0.000000000000000 
1
1.000000000000000 0.000000000000000 0.000000000000000 0.000000000000000 
0.000000000000000 1.000000000000000 0.000000000000000 0.000000000000000 
0.000000000000000 0.000000000000000 1.000000000000000 0.000000000000000 
2  1 1 2 -1 0
1
1.000000000000000 0.000000000000000 0.000000000000000 0.000000000000000 
0.000000000000000 1.000000000000000 0.000000000000000 0.000000000000000 
0.000000000000000 0.000000000000000 1.000000000000000 4.000000000000000 
2  1 1 2 -1 4 1 0
2  2 1 1 -1 0
2  4 -1 2 1 1 -1 0
2  2 -1 0
2  2 -1 4 1 0
Curve2ds 8
1 0.00000000000000000 0.00000000000000000 0.00000000000000000 -1.00000000000000000 
1 6.28318530717958623 0.00000000000000000 0.00000000000000000 -1.00000000000000000 
1 0.00000000000000000 0.00000000000000000 1.00000000000000000 0.00000000000000000 
1 0.00000000000000000 -4.00000000000000000 1.00000000000000000 0.00000000000000000 
1 0.00000000000000000 0.00000000000000000 0.00000000000000000 -1.00000000000000000 
1 6.28318530717958623 0.00000000000000000 0.00000000000000000 -1.00000000000000000 
1 0.00000000000000000 0.00000000000000000 1.00000000000000000 0.00000000000000000 
1 0.00000000000000000 -4.00000000000000000 1.00000000000000000 0.00000000000000000 
Curves 4
1 22.00000000000001066 44.99999999999999289 0.00000000000000000 0.00000000000000000 0.00000000000000000 1.00000000000000000 
2 42.00000000000000000 -22.00000000000000000 0.00000000000000000 0.00000000000000000 0.00000000000000000 1.00000000000000000 1.00000000000000000 0.00000000000000000 -0.00000000000000000 -0.00000000000000000 1.00000000000000000 0.00000000000000000 3.00000000000000000
1 22.00000000000000355 14.99999999999999112 0.00000000000000000 0.00000000000000000 0.00000000000000000 1.00000000000000000 
2 11.99999999999999645 -22.00000000000000000 0.00000000000000000 0.00000000000000000 0.00000000000000000 1.00000000000000000 1.00000000000000000 0.00000000000000000 -0.00000000000000000 -0.00000000000000000 1.00000000000000000 0.00000000000000000 3.00000000000000000
Polygon3D 0
PolygonOnTriangulations 0
Surfaces 4
2 22.00000000000001066 41.99999999999999289 0.00000000000000000 -0.00000000000000000 0.00000000000000000 -1.00000000000000000 0.00000000000000022 1.00000000000000000 0.00000000000000000 -1.00000000000000000 0.00000000000000022 0.00000000000000000 3.00000000000000000
1 22.00000000000000355 26.99999999999998934 0.00000000000000000 0.00000000000000000 0.00000000000000000 1.00000000000000000 1.00000000000000000 0.00000000000000000 -0.00000000000000000 -0.00000000000000000 1.00000000000000000 0.00000000000000000 
2 22.00000000000000355 11.99999999999999112 0.00000000000000000 -0.00000000000000000 0.00000000000000000 -1.00000000000000000 0.00000000000000022 1.00000000000000000 0.00000000000000000 -1.00000000000000000 0.00000000000000022 0.00000000000000000 3.00000000000000000
1 22.00000000000000355 26.99999999999998934 0.00000000000000000 0.00000000000000000 0.00000000000000000 1.00000000000000000 1.00000000000000000 0.00000000000000000 -0.00000000000000000 -0.00000000000000000 1.00000000000000000 0.00000000000000000 
Triangulations 0

TShapes 19
Ve
0.000000100000000
45.000000000000000 -22.000000000000000 0.000000000000000
0 0

0101101
*
Ed
 0.000000100000000 1 1 0
1  1 0 0.000000000000000 4.000000000000000
3  1 2CN 1 0 0.000000000000000 4.000000000000000
0

0101000
+19 3 -19 5 *
Ed
 0.000000100000000 1 1 0
1  2 0 0.000000000000000 6.283185307179586
2  3 1 6 0.000000000000000 6.283185307179586
2  4 1 7 0.000000000000000 6.283185307179586
0

0101100
+19 0 -19 0 *
Wi

0101100
+18 0 -18 0 -17 3 +17 5 *
Fa
0  0.000000100000000 1 0

0111000
+16 0 *
Wi

0101100
+17 1 *
Fa
0  0.000000100000000 2 0

0111000
+14 0 *
Sh

0101100
+15 0 +13 8 -13 9 *
So

0100000
-12 0 *
Ve
0.000000100000000
14.999999999999996 -22.000000000000000 0.000000000000000
0 0

0101101
*
Ed
 0.000000100000000 1 1 0
1  3 0 0.000000000000000 4.000000000000000
3  5 6CN 3 0 0.000000000000000 4.000000000000000
0

0101000
+10 3 -10 5 *
Ed
 0.000000100000000 1 1 0
1  4 0 0.000000000000000 6.283185307179586
2  7 3 6 0.000000000000000 6.283185307179586
2  8 3 7 0.000000000000000 6.283185307179586
0

0101100
+10 0 -10 0 *
Wi

0101100
+9 0 -9 0 -8 3 +8 5 *
Fa
0  0.000000100000000 3 0

0111000
+7 0 *
Wi

0101100
+8 1 *
Fa
0  0.000000100000000 4 0

0111000
+5 0 *
Sh

0101100
+6 0 +4 8 -4 9 *
So

0100000
-3 0 *
Co

1100000
+11 0 +2 0 *

+1 0 