
CASCADE Topology V1, (c) Matra-Datavision
Locations 9
1
1.000000000000000 0.000000000000000 0.000000000000000 0.000000000000000 
0.000000000000000 1.000000000000000 0.000000000000000 0.000000000000000 
0.000000000000000 0.000000000000000 1.000000000000000 0.000000000000000 
1
1.000000000000000 -0.000000000000002 0.000000000000000 -0.000000000000006 
0.000000000000000 0.000000000000000 1.000000000000000 60.000000000000000 
-0.000000000000002 -1.000000000000000 0.000000000000000 24.877551020408177 
1
1.000000000000000 0.000000000000000 0.000000000000000 0.000000000000000 
0.000000000000000 1.000000000000000 0.000000000000000 0.000000000000000 
0.000000000000000 0.000000000000000 1.000000000000000 0.000000000000000 
2  1 1 2 1 3 -1 0
1
1.000000000000000 0.000000000000000 0.000000000000000 -0.000000000000000 
0.000000000000000 1.000000000000000 0.000000000000000 -53.000000000000000 
0.000000000000000 0.000000000000000 1.000000000000000 -0.000000000000012 
2  1 1 2 1 3 -1 5 1 0
2  3 -1 0
2  1 1 2 1 0
2  3 -1 5 1 0
Curve2ds 0
Curves 8
1 -40.30155294601969018 60.00000000000000711 4.87755102040824795 -0.00000000000000000 -1.00000000000000000 -0.00000000000000022 
1 -40.30155294601961202 59.99999999999999289 47.87768138230616444 -0.00000000000000000 -1.00000000000000000 -0.00000000000000022 
1 -40.30155294601964755 20.00000000000000000 0.00000000000000000 0.00000000000000000 -1.00000000000000000 0.00000000000000000 
1 42.07438894842306354 59.99999999999999289 48.87755102040810584 -0.00000000000000000 -1.00000000000000000 -0.00000000000000022 
1 -40.30155294601964755 -23.00013036189791649 0.00000000000000000 0.99992634402298475 -0.01213699010577808 0.00000000000000000 
1 42.08045687584489514 60.00000000000000711 4.87755102040810229 -0.00000000000000000 -1.00000000000000000 -0.00000000000000022 
1 42.07438894842302801 -24.00000000000000000 0.00000000000000000 0.00013790744009565 0.99999999049076893 0.00000000000000000 
1 42.08045687584493777 20.00000000000000000 0.00000000000000000 -1.00000000000000000 0.00000000000000000 0.00000000000000000 
Polygon3D 0
PolygonOnTriangulations 0
Surfaces 5
1 -40.30155294601969018 60.00000000000000711 4.87755102040824795 -1.00000000000000000 -0.00000000000000000 0.00000000000000179 0.00000000000000179 -0.00000000000000022 1.00000000000000000 0.00000000000000000 1.00000000000000000 0.00000000000000022 
1 -40.30155294601961202 59.99999999999999289 47.87768138230616444 -0.01213699010577629 -0.00000000000000022 0.99992634402298475 0.99992634402298475 0.00000000000000000 0.01213699010577629 -0.00000000000000000 1.00000000000000000 0.00000000000000022 
1 42.07438894842306354 59.99999999999999289 48.87755102040810584 0.99999999049076893 -0.00000000000000000 0.00013790744009386 0.00013790744009386 0.00000000000000022 -0.99999999049076893 -0.00000000000000000 1.00000000000000000 0.00000000000000022 
1 42.08045687584489514 60.00000000000000711 4.87755102040810229 -0.00000000000000179 0.00000000000000022 -1.00000000000000000 -1.00000000000000000 0.00000000000000000 0.00000000000000179 0.00000000000000000 1.00000000000000000 0.00000000000000022 
1 1.05151719106345887 60.00000000000000000 26.62857634526309170 0.00000000000000000 1.00000000000000000 0.00000000000000033 0.00000000000000000 -0.00000000000000033 1.00000000000000000 1.00000000000000000 0.00000000000000000 -0.00000000000000000 
Triangulations 0

TShapes 24
Ve
0.000000100000000
-40.301552946019648 20.000000000000000 0.000000000000000
0 0

0101101
*
Ed
 0.000000100000000 1 1 0
1  1 0 0.000000000000000 53.000000000000000
0

0101000
+24 4 -24 6 *
Ve
0.000000100000000
-40.301552946019648 -23.000130361897916 0.000000000000000
0 0

0101101
*
Ed
 0.000000100000000 1 1 0
1  2 0 0.000000000000000 53.000000000000000
0

0101000
+22 4 -22 6 *
Ed
 0.000000100000000 1 1 0
1  3 0 0.000000000000000 43.000130361897916
0

0101000
+24 0 -22 0 *
Wi

0101100
+23 0 -21 0 -20 4 +20 6 *
Fa
0  0.000000100000000 1 0

0111000
+19 0 *
Ve
0.000000100000000
42.074388948423028 -24.000000000000000 0.000000000000000
0 0

0101101
*
Ed
 0.000000100000000 1 1 0
1  4 0 0.000000000000000 53.000000000000000
0

0101000
+17 4 -17 6 *
Ed
 0.000000100000000 1 1 0
1  5 0 0.000000000000000 82.382009821864585
0

0101000
+22 0 -17 0 *
Wi

0101100
+21 0 -16 0 -15 4 +15 6 *
Fa
0  0.000000100000000 2 0

0111000
+14 0 *
Ve
0.000000100000000
42.080456875844938 20.000000000000000 0.000000000000000
0 0

0101101
*
Ed
 0.000000100000000 1 1 0
1  6 0 0.000000000000000 53.000000000000000
0

0101000
+12 4 -12 6 *
Ed
 0.000000100000000 1 1 0
1  7 0 0.000000000000000 44.000000418406174
0

0101000
+17 0 -12 0 *
Wi

0101100
+16 0 -11 0 -10 4 +10 6 *
Fa
0  0.000000100000000 3 0

0111000
+9 0 *
Ed
 0.000000100000000 1 1 0
1  8 0 0.000000000000000 82.382009821864585
0

0101000
+12 0 -24 0 *
Wi

0101100
+11 0 -23 0 -7 4 +7 6 *
Fa
0  0.000000100000000 4 0

0111000
+6 0 *
Wi

0101100
+20 0 +15 0 +10 0 +7 0 *
Fa
0  0.000000100000000 5 0

0111000
+4 8 *
Sh

0101100
+18 0 +13 0 +8 0 +5 0 +3 7 -3 9 *
So

1100000
+2 0 *

+1 0 