
CASCADE Topology V1, (c) Matra-Datavision
Locations 11
1
1.000000000000000 0.000000000000000 0.000000000000000 0.000000000000000 
0.000000000000000 1.000000000000000 0.000000000000000 0.000000000000000 
0.000000000000000 0.000000000000000 1.000000000000000 0.000000000000000 
1
1.000000000000000 0.000000000000000 0.000000000000000 0.000000000000000 
0.000000000000000 1.000000000000000 0.000000000000000 0.000000000000000 
0.000000000000000 0.000000000000000 1.000000000000000 53.000000000000000 
1
1.000000000000000 0.000000000000000 0.000000000000000 0.000000000000000 
0.000000000000000 1.000000000000000 0.000000000000000 0.000000000000000 
0.000000000000000 0.000000000000000 1.000000000000000 0.000000000000000 
2  1 1 2 1 3 -1 0
1
1.000000000000000 0.000000000000000 0.000000000000000 -0.000000000000000 
0.000000000000000 1.000000000000000 0.000000000000000 -0.000000000000000 
0.000000000000000 0.000000000000000 1.000000000000000 -10.000000000000000 
2  1 1 2 1 3 -1 5 1 0
2  3 1 2 -1 1 -1 0
2  5 -1 3 1 2 -1 1 -1 0
2  3 -1 0
2  1 1 2 1 0
2  3 -1 5 1 0
Curve2ds 20
1 0.00000000000000000 0.00000000000000000 0.00000000000000000 -1.00000000000000000 
1 6.28318530717958623 0.00000000000000000 0.00000000000000000 -1.00000000000000000 
1 0.00000000000000000 0.00000000000000000 1.00000000000000000 0.00000000000000000 
1 0.00000000000000000 -10.00000000000000000 1.00000000000000000 0.00000000000000000 
1 0.00000000000000000 0.00000000000000000 0.00000000000000000 -1.00000000000000000 
1 6.28318530717958623 0.00000000000000000 0.00000000000000000 -1.00000000000000000 
1 0.00000000000000000 0.00000000000000000 1.00000000000000000 0.00000000000000000 
1 0.00000000000000000 -10.00000000000000000 1.00000000000000000 0.00000000000000000 
1 0.00000000000000000 0.00000000000000000 0.00000000000000000 -1.00000000000000000 
1 6.28318530717958623 0.00000000000000000 0.00000000000000000 -1.00000000000000000 
1 0.00000000000000000 0.00000000000000000 1.00000000000000000 0.00000000000000000 
1 0.00000000000000000 -10.00000000000000000 1.00000000000000000 0.00000000000000000 
1 0.00000000000000000 0.00000000000000000 0.00000000000000000 -1.00000000000000000 
1 6.28318530717958623 0.00000000000000000 0.00000000000000000 -1.00000000000000000 
1 0.00000000000000000 0.00000000000000000 1.00000000000000000 0.00000000000000000 
1 0.00000000000000000 -10.00000000000000000 1.00000000000000000 0.00000000000000000 
1 0.00000000000000000 0.00000000000000000 0.00000000000000000 -1.00000000000000000 
1 6.28318530717958623 0.00000000000000000 0.00000000000000000 -1.00000000000000000 
1 0.00000000000000000 0.00000000000000000 1.00000000000000000 0.00000000000000000 
1 0.00000000000000000 -10.00000000000000000 1.00000000000000000 0.00000000000000000 
Curves 10
1 12.00000000000000000 27.00000000000000000 53.00000000000000000 -0.00000000000000000 -0.00000000000000000 -1.00000000000000000 
2 0.00000000000000000 27.00000000000000000 0.00000000000000000 0.00000000000000000 0.00000000000000000 1.00000000000000000 1.00000000000000000 0.00000000000000000 -0.00000000000000000 -0.00000000000000000 1.00000000000000000 0.00000000000000000 12.00000000000000000
1 17.25000000000000355 42.50000000000000000 53.00000000000000000 -0.00000000000000000 -0.00000000000000000 -1.00000000000000000 
2 15.50000000000000355 42.50000000000000000 0.00000000000000000 0.00000000000000000 0.00000000000000000 1.00000000000000000 1.00000000000000000 0.00000000000000000 -0.00000000000000000 -0.00000000000000000 1.00000000000000000 0.00000000000000000 1.75000000000000000
1 17.25000000000000355 11.50000000000000000 53.00000000000000000 -0.00000000000000000 -0.00000000000000000 -1.00000000000000000 
2 15.50000000000000355 11.50000000000000000 0.00000000000000000 0.00000000000000000 0.00000000000000000 1.00000000000000000 1.00000000000000000 0.00000000000000000 -0.00000000000000000 -0.00000000000000000 1.00000000000000000 0.00000000000000000 1.75000000000000000
1 -13.74999999999999645 11.50000000000000000 53.00000000000000000 -0.00000000000000000 -0.00000000000000000 -1.00000000000000000 
2 -15.49999999999999645 11.50000000000000000 0.00000000000000000 0.00000000000000000 0.00000000000000000 1.00000000000000000 1.00000000000000000 0.00000000000000000 -0.00000000000000000 -0.00000000000000000 1.00000000000000000 0.00000000000000000 1.75000000000000000
1 -13.74999999999999645 42.50000000000000000 53.00000000000000000 -0.00000000000000000 -0.00000000000000000 -1.00000000000000000 
2 -15.49999999999999645 42.50000000000000000 0.00000000000000000 0.00000000000000000 0.00000000000000000 1.00000000000000000 1.00000000000000000 0.00000000000000000 -0.00000000000000000 -0.00000000000000000 1.00000000000000000 0.00000000000000000 1.75000000000000000
Polygon3D 0
PolygonOnTriangulations 0
Surfaces 10
2 0.00000000000000000 27.00000000000000000 53.00000000000000000 0.00000000000000000 0.00000000000000000 1.00000000000000000 1.00000000000000000 0.00000000000000000 -0.00000000000000000 -0.00000000000000000 1.00000000000000000 0.00000000000000000 12.00000000000000000
1 0.00000000000000072 27.00000000000000355 52.99999999999999289 0.00000000000000000 0.00000000000000000 1.00000000000000000 1.00000000000000000 0.00000000000000000 -0.00000000000000000 -0.00000000000000000 1.00000000000000000 0.00000000000000000 
2 15.50000000000000355 42.50000000000000000 53.00000000000000000 0.00000000000000000 0.00000000000000000 1.00000000000000000 1.00000000000000000 0.00000000000000000 -0.00000000000000000 -0.00000000000000000 1.00000000000000000 0.00000000000000000 1.75000000000000000
1 0.00000000000000072 27.00000000000000355 52.99999999999999289 0.00000000000000000 0.00000000000000000 1.00000000000000000 1.00000000000000000 0.00000000000000000 -0.00000000000000000 -0.00000000000000000 1.00000000000000000 0.00000000000000000 
2 15.50000000000000355 11.50000000000000000 53.00000000000000000 0.00000000000000000 0.00000000000000000 1.00000000000000000 1.00000000000000000 0.00000000000000000 -0.00000000000000000 -0.00000000000000000 1.00000000000000000 0.00000000000000000 1.75000000000000000
1 0.00000000000000072 27.00000000000000355 52.99999999999999289 0.00000000000000000 0.00000000000000000 1.00000000000000000 1.00000000000000000 0.00000000000000000 -0.00000000000000000 -0.00000000000000000 1.00000000000000000 0.00000000000000000 
2 -15.49999999999999645 11.50000000000000000 53.00000000000000000 0.00000000000000000 0.00000000000000000 1.00000000000000000 1.00000000000000000 0.00000000000000000 -0.00000000000000000 -0.00000000000000000 1.00000000000000000 0.00000000000000000 1.75000000000000000
1 0.00000000000000072 27.00000000000000355 52.99999999999999289 0.00000000000000000 0.00000000000000000 1.00000000000000000 1.00000000000000000 0.00000000000000000 -0.00000000000000000 -0.00000000000000000 1.00000000000000000 0.00000000000000000 
2 -15.49999999999999645 42.50000000000000000 53.00000000000000000 0.00000000000000000 0.00000000000000000 1.00000000000000000 1.00000000000000000 0.00000000000000000 -0.00000000000000000 -0.00000000000000000 1.00000000000000000 0.00000000000000000 1.75000000000000000
1 0.00000000000000072 27.00000000000000355 52.99999999999999289 0.00000000000000000 0.00000000000000000 1.00000000000000000 1.00000000000000000 0.00000000000000000 -0.00000000000000000 -0.00000000000000000 1.00000000000000000 0.00000000000000000 
Triangulations 0

TShapes 46
Ve
0.000000100000000
12.000000000000000 27.000000000000000 0.000000000000000
0 0

0101101
*
Ed
 0.000000100000000 1 1 0
1  1 0 0.000000000000000 10.000000000000000
3  1 2CN 1 0 0.000000000000000 10.000000000000000
0

0101000
+46 4 -46 6 *
Ed
 0.000000100000000 1 1 0
1  2 0 0.000000000000000 6.283185307179586
2  3 1 7 0.000000000000000 6.283185307179586
2  4 1 8 0.000000000000000 6.283185307179586
0

0101100
+46 0 -46 0 *
Wi

0101100
+45 0 -45 0 -44 4 +44 6 *
Fa
0  0.000000100000000 1 0

0111000
+43 0 *
Wi

0101100
+44 0 *
Fa
0  0.000000100000000 2 0

0111000
+41 10 *
Sh

0101100
+42 0 +40 9 -40 11 *
So

0100000
+39 0 *
Ve
0.000000100000000
17.250000000000004 42.500000000000000 0.000000000000000
0 0

0101101
*
Ed
 0.000000100000000 1 1 0
1  3 0 0.000000000000000 10.000000000000000
3  5 6CN 3 0 0.000000000000000 10.000000000000000
0

0101000
+37 4 -37 6 *
Ed
 0.000000100000000 1 1 0
1  4 0 0.000000000000000 6.283185307179586
2  7 3 7 0.000000000000000 6.283185307179586
2  8 3 8 0.000000000000000 6.283185307179586
0

0101100
+37 0 -37 0 *
Wi

0101100
+36 0 -36 0 -35 4 +35 6 *
Fa
0  0.000000100000000 3 0

0111000
+34 0 *
Wi

0101100
+35 0 *
Fa
0  0.000000100000000 4 0

0111000
+32 10 *
Sh

0101100
+33 0 +31 9 -31 11 *
So

0100000
+30 0 *
Ve
0.000000100000000
17.250000000000004 11.500000000000000 0.000000000000000
0 0

0101101
*
Ed
 0.000000100000000 1 1 0
1  5 0 0.000000000000000 10.000000000000000
3  9 10CN 5 0 0.000000000000000 10.000000000000000
0

0101000
+28 4 -28 6 *
Ed
 0.000000100000000 1 1 0
1  6 0 0.000000000000000 6.283185307179586
2  11 5 7 0.000000000000000 6.283185307179586
2  12 5 8 0.000000000000000 6.283185307179586
0

0101100
+28 0 -28 0 *
Wi

0101100
+27 0 -27 0 -26 4 +26 6 *
Fa
0  0.000000100000000 5 0

0111000
+25 0 *
Wi

0101100
+26 0 *
Fa
0  0.000000100000000 6 0

0111000
+23 10 *
Sh

0101100
+24 0 +22 9 -22 11 *
So

0100000
+21 0 *
Ve
0.000000100000000
-13.749999999999996 11.500000000000000 0.000000000000000
0 0

0101101
*
Ed
 0.000000100000000 1 1 0
1  7 0 0.000000000000000 10.000000000000000
3  13 14CN 7 0 0.000000000000000 10.000000000000000
0

0101000
+19 4 -19 6 *
Ed
 0.000000100000000 1 1 0
1  8 0 0.000000000000000 6.283185307179586
2  15 7 7 0.000000000000000 6.283185307179586
2  16 7 8 0.000000000000000 6.283185307179586
0

0101100
+19 0 -19 0 *
Wi

0101100
+18 0 -18 0 -17 4 +17 6 *
Fa
0  0.000000100000000 7 0

0111000
+16 0 *
Wi

0101100
+17 0 *
Fa
0  0.000000100000000 8 0

0111000
+14 10 *
Sh

0101100
+15 0 +13 9 -13 11 *
So

0100000
+12 0 *
Ve
0.000000100000000
-13.749999999999996 42.500000000000000 0.000000000000000
0 0

0101101
*
Ed
 0.000000100000000 1 1 0
1  9 0 0.000000000000000 10.000000000000000
3  17 18CN 9 0 0.000000000000000 10.000000000000000
0

0101000
+10 4 -10 6 *
Ed
 0.000000100000000 1 1 0
1  10 0 0.000000000000000 6.283185307179586
2  19 9 7 0.000000000000000 6.283185307179586
2  20 9 8 0.000000000000000 6.283185307179586
0

0101100
+10 0 -10 0 *
Wi

0101100
+9 0 -9 0 -8 4 +8 6 *
Fa
0  0.000000100000000 9 0

0111000
+7 0 *
Wi

0101100
+8 0 *
Fa
0  0.000000100000000 10 0

0111000
+5 10 *
Sh

0101100
+6 0 +4 9 -4 11 *
So

0100000
+3 0 *
Co

1100000
+38 0 +29 0 +20 0 +11 0 +2 0 *

+1 0 