
CASCADE Topology V1, (c) Matra-Datavision
Locations 25
1
1.000000000000000 0.000000000000000 0.000000000000000 0.000000000000000 
0.000000000000000 1.000000000000000 0.000000000000000 0.000000000000000 
0.000000000000000 0.000000000000000 1.000000000000000 0.000000000000000 
1
1.000000000000000 0.000000000000000 0.000000000000000 0.000000000000000 
0.000000000000000 1.000000000000000 0.000000000000000 0.000000000000000 
0.000000000000000 0.000000000000000 1.000000000000000 0.000000000000000 
1
1.000000000000000 0.000000000000000 0.000000000000000 0.000000000000000 
0.000000000000000 1.000000000000000 0.000000000000000 0.000000000000000 
0.000000000000000 0.000000000000000 1.000000000000000 0.000000000000000 
1
1.000000000000000 0.000000000000000 0.000000000000000 0.000000000000000 
0.000000000000000 1.000000000000000 0.000000000000000 0.000000000000000 
0.000000000000000 0.000000000000000 1.000000000000000 0.000000000000000 
2  2 -1 3 1 4 -1 0
1
1.000000000000000 0.000000000000000 0.000000000000000 0.000000000000000 
0.000000000000000 1.000000000000000 0.000000000000000 0.000000000000000 
0.000000000000000 0.000000000000000 1.000000000000000 0.000000000000000 
1
1.000000000000000 0.000000000000000 0.000000000000000 0.000000000000000 
0.000000000000000 1.000000000000000 0.000000000000000 0.000000000000000 
0.000000000000000 0.000000000000000 1.000000000000000 0.000000000000000 
2  6 1 7 1 0
2  2 1 7 -1 6 -1 0
2  2 -1 0
2  3 1 4 -1 0
1
1.000000000000000 0.000000000000000 0.000000000000000 0.000000000000000 
0.000000000000000 1.000000000000000 0.000000000000000 0.000000000000000 
0.000000000000000 0.000000000000000 1.000000000000000 0.000000000000000 
1
1.000000000000000 0.000000000000000 0.000000000000000 0.000000000000000 
0.000000000000000 1.000000000000000 0.000000000000000 0.000000000000000 
0.000000000000000 0.000000000000000 1.000000000000000 53.000000000000000 
2  12 1 13 1 2 -1 0
2  2 1 13 -1 12 -1 0
2  12 1 13 1 2 -1 3 1 4 -1 0
1
1.000000000000000 0.000000000000000 0.000000000000000 0.000000000000000 
0.000000000000000 1.000000000000000 0.000000000000000 0.000000000000000 
0.000000000000000 0.000000000000000 1.000000000000000 0.000000000000000 
1
1.000000000000000 0.000000000000000 0.000000000000000 0.000000000000000 
0.000000000000000 1.000000000000000 0.000000000000000 0.000000000000000 
0.000000000000000 0.000000000000000 1.000000000000000 53.000000000000000 
2  17 1 18 1 4 -1 0
2  4 1 18 -1 17 -1 0
1
1.000000000000000 0.000000000000000 0.000000000000000 -0.000000000000000 
0.000000000000000 1.000000000000000 0.000000000000000 -0.000000000000000 
0.000000000000000 0.000000000000000 1.000000000000000 -10.000000000000000 
2  21 -1 4 1 18 -1 17 -1 0
2  17 1 18 1 4 -1 21 1 0
2  4 -1 21 1 0
2  17 1 18 1 0
Curve2ds 40
3 7.14074786057466326 2.44225521783479849 -1.00000000000000000 -0.00000000000000009 0.00000000000000009 -1.00000000000000000 47.00000000000000000 26.50000000000000355
7 0 0  1 2 2  0.00000000000000000 0.00000000000000000  40.00000000000000000 0.00000000000000000 
 4.24919421877533665 2 5.61869962015006230 2
1 -29.85925213942533674 18.78359495289948455 0.00000000000000000 -1.00000000000000000 
7 0 0  1 2 2  0.00000000000000000 0.00000000000000000  48.00000000000000000 0.00000000000000000 
 0.00000000000000000 2 43.84133973506468607 2
1 -29.85925213942533674 -25.05774478216520151 1.00000000000000000 0.00000000000000000 
1 0.00000000000000000 0.00000000000000000 1.00000000000000000 0.00000000000000000 
1 28.14074786057464195 -25.05774478216520151 0.00000000000000000 1.00000000000000000 
1 0.00000000000000000 0.00000000000000000 1.00000000000000000 0.00000000000000000 
1 40.00000000000000000 0.00000000000000000 0.00000000000000000 1.00000000000000000 
1 0.00000000000000000 0.00000000000000000 0.00000000000000000 1.00000000000000000 
1 0.00000000000000000 1.00000000000000000 1.00000000000000000 0.00000000000000000 
1 0.00000000000000000 0.00000000000000000 0.00000000000000000 1.00000000000000000 
1 51.20768489800677514 0.00000000000000000 0.00000000000000000 1.00000000000000000 
1 48.00000000000000000 0.00000000000000000 0.00000000000000000 1.00000000000000000 
1 0.00000000000000000 0.00000000000000000 0.00000000000000000 1.00000000000000000 
1 0.00000000000000000 1.00000000000000000 1.00000000000000000 0.00000000000000000 
1 57.99999999999997868 0.00000000000000000 0.00000000000000000 1.00000000000000000 
1 0.00000000000000000 0.00000000000000000 0.00000000000000000 1.00000000000000000 
7 0 0  1 2 2  0.00000000000000000 1.00000000000000000  57.99999999999997868 1.00000000000000000 
 0.00000000000000000 2 40.00000000000000000 2
7 0 0  1 2 2  0.00000000000000000 1.00000000000000000  51.20768489800677514 1.00000000000000000 
 0.00000000000000000 2 48.00000000000000000 2
1 0.00000000000000000 0.00000000000000000 1.00000000000000000 0.00000000000000000 
1 0.00000000000000000 -10.00000000000000000 1.00000000000000000 0.00000000000000000 
1 0.00000000000000000 0.00000000000000000 1.00000000000000000 0.00000000000000000 
1 0.00000000000000000 -10.00000000000000000 1.00000000000000000 0.00000000000000000 
1 0.00000000000000000 0.00000000000000000 1.00000000000000000 0.00000000000000000 
1 0.00000000000000000 -10.00000000000000000 1.00000000000000000 0.00000000000000000 
1 0.00000000000000000 0.00000000000000000 1.00000000000000000 0.00000000000000000 
1 0.00000000000000000 -10.00000000000000000 1.00000000000000000 0.00000000000000000 
1 0.00000000000000000 0.00000000000000000 1.00000000000000000 0.00000000000000000 
1 0.00000000000000000 -10.00000000000000000 1.00000000000000000 0.00000000000000000 
1 0.00000000000000000 0.00000000000000000 0.00000000000000000 -1.00000000000000000 
1 6.28318530717958623 0.00000000000000000 0.00000000000000000 -1.00000000000000000 
1 0.00000000000000000 0.00000000000000000 0.00000000000000000 -1.00000000000000000 
1 6.28318530717958623 0.00000000000000000 0.00000000000000000 -1.00000000000000000 
1 0.00000000000000000 0.00000000000000000 0.00000000000000000 -1.00000000000000000 
1 6.28318530717958623 0.00000000000000000 0.00000000000000000 -1.00000000000000000 
1 0.00000000000000000 0.00000000000000000 0.00000000000000000 -1.00000000000000000 
1 6.28318530717958623 0.00000000000000000 0.00000000000000000 -1.00000000000000000 
1 0.00000000000000000 0.00000000000000000 0.00000000000000000 -1.00000000000000000 
1 6.28318530717958623 0.00000000000000000 0.00000000000000000 -1.00000000000000000 
Curves 22
3 8.00000000000000000 27.50000000000000000 0.00000000000000000 0.00000000000000000 0.00000000000000000 1.00000000000000000 -1.00000000000000000 -0.00000000000000009 0.00000000000000000 0.00000000000000009 -1.00000000000000000 0.00000000000000000 47.00000000000000000 26.50000000000000355
1 -29.00000000000000000 43.84133973506468607 0.00000000000000000 0.00000000000000000 -1.00000000000000000 0.00000000000000000 
1 -29.00000000000000000 0.00000000000000000 0.00000000000000000 1.00000000000000000 0.00000000000000000 0.00000000000000000 
1 28.99999999999997868 0.00000000000000000 0.00000000000000000 0.00000000000000000 1.00000000000000000 0.00000000000000000 
7 0 0  1 2 2  -29.00000000000000000 43.84133973506467896 0.00000000000000000  -20.00000000000000000 48.00000000000000000 53.00000000000000000 
 0.00000000000000000 2 1.00000000000000000 2
1 20.00000000000000000 48.00000000000000000 0.00000000000000000 -1.00000000000000000 0.00000000000000000 0.00000000000000000 
7 0 0  1 2 2  28.99999999999997868 51.20768489800676804 0.00000000000000000  20.00000000000000000 48.00000000000000000 53.00000000000000000 
 0.00000000000000000 2 1.00000000000000000 2
7 0 0  1 2 2  -29.00000000000000000 0.00000000000000000 0.00000000000000000  -20.00000000000000000 0.00000000000000000 53.00000000000000000 
 0.00000000000000000 2 1.00000000000000000 2
1 -20.00000000000000000 48.00000000000000000 0.00000000000000000 0.00000000000000000 -1.00000000000000000 0.00000000000000000 
7 0 0  1 2 2  28.99999999999997868 0.00000000000000000 0.00000000000000000  20.00000000000000000 0.00000000000000000 53.00000000000000000 
 0.00000000000000000 2 1.00000000000000000 2
1 -20.00000000000000000 0.00000000000000000 0.00000000000000000 1.00000000000000000 0.00000000000000000 0.00000000000000000 
1 20.00000000000000000 0.00000000000000000 0.00000000000000000 0.00000000000000000 1.00000000000000000 0.00000000000000000 
2 -15.49999999999999645 11.50000000000000000 0.00000000000000000 0.00000000000000000 0.00000000000000000 1.00000000000000000 1.00000000000000000 0.00000000000000000 -0.00000000000000000 -0.00000000000000000 1.00000000000000000 0.00000000000000000 1.75000000000000000
2 15.50000000000000355 11.50000000000000000 0.00000000000000000 0.00000000000000000 0.00000000000000000 1.00000000000000000 1.00000000000000000 0.00000000000000000 -0.00000000000000000 -0.00000000000000000 1.00000000000000000 0.00000000000000000 1.75000000000000000
2 0.00000000000000000 27.00000000000000000 0.00000000000000000 0.00000000000000000 0.00000000000000000 1.00000000000000000 1.00000000000000000 0.00000000000000000 -0.00000000000000000 -0.00000000000000000 1.00000000000000000 0.00000000000000000 12.00000000000000000
2 -15.49999999999999645 42.50000000000000000 0.00000000000000000 0.00000000000000000 0.00000000000000000 1.00000000000000000 1.00000000000000000 0.00000000000000000 -0.00000000000000000 -0.00000000000000000 1.00000000000000000 0.00000000000000000 1.75000000000000000
2 15.50000000000000355 42.50000000000000000 0.00000000000000000 0.00000000000000000 0.00000000000000000 1.00000000000000000 1.00000000000000000 0.00000000000000000 -0.00000000000000000 -0.00000000000000000 1.00000000000000000 0.00000000000000000 1.75000000000000000
1 -13.74999999999999645 11.50000000000000000 53.00000000000000000 -0.00000000000000000 -0.00000000000000000 -1.00000000000000000 
1 17.25000000000000355 11.50000000000000000 53.00000000000000000 -0.00000000000000000 -0.00000000000000000 -1.00000000000000000 
1 12.00000000000000000 27.00000000000000000 53.00000000000000000 -0.00000000000000000 -0.00000000000000000 -1.00000000000000000 
1 -13.74999999999999645 42.50000000000000000 53.00000000000000000 -0.00000000000000000 -0.00000000000000000 -1.00000000000000000 
1 17.25000000000000355 42.50000000000000000 53.00000000000000000 -0.00000000000000000 -0.00000000000000000 -1.00000000000000000 
Polygon3D 0
PolygonOnTriangulations 0
Surfaces 16
1 0.85925213942533696 25.05774478216520151 0.00000000000000000 0.00000000000000000 0.00000000000000000 1.00000000000000000 1.00000000000000000 0.00000000000000000 -0.00000000000000000 -0.00000000000000000 1.00000000000000000 0.00000000000000000 
9 0 0 0 0 8 1 9 2 2 2 28.99999999999997868 51.20768489800676804 0.00000000000000000  20.00000000000000000 48.00000000000000000 53.00000000000000000  
21.80194944089724984 53.23462573807315579 0.00000000000000000  15.00000000000000178 48.00000000000000000 53.00000000000000000  
13.90056836973477949 54.46755163107855680 0.00000000000000000  10.00000000000000000 48.00000000000000000 53.00000000000000000  
5.61730071817702559 54.81594865132074545 0.00000000000000000  4.99999999999999911 48.00000000000000000 53.00000000000000000  
-2.68248323974278335 54.23893965067743750 0.00000000000000000  -0.00000000000000011 48.00000000000000000 53.00000000000000000  
-10.61945331329492426 52.75378426301595880 0.00000000000000000  -5.00000000000000089 48.00000000000000000 53.00000000000000000  
-17.83779013685287040 50.43659122306710429 0.00000000000000000  -10.00000000000000178 48.00000000000000000 53.00000000000000000  
-24.03849531818425689 47.41261645327675467 0.00000000000000000  -15.00000000000000178 48.00000000000000000 53.00000000000000000  
-29.00000000000000000 43.84133973506467896 0.00000000000000000  -20.00000000000000000 48.00000000000000000 53.00000000000000000  

0.00000000000000000 9
40.00000000000000000 9

0.00000000000000000 2
1.00000000000000000 2

9 0 0 0 0 1 1 2 2 2 2 -29.00000000000000000 43.84133973506468607 0.00000000000000000  -20.00000000000000000 48.00000000000000000 53.00000000000000000  
-29.00000000000000000 0.00000000000000000 0.00000000000000000  -20.00000000000000000 0.00000000000000000 53.00000000000000000  

0.00000000000000000 2
48.00000000000000000 2

0.00000000000000000 2
1.00000000000000000 2

9 0 0 0 0 1 1 2 2 2 2 -29.00000000000000000 0.00000000000000000 0.00000000000000000  -20.00000000000000000 0.00000000000000000 53.00000000000000000  
28.99999999999997868 0.00000000000000000 0.00000000000000000  20.00000000000000000 0.00000000000000000 53.00000000000000000  

0.00000000000000000 2
57.99999999999997868 2

0.00000000000000000 2
1.00000000000000000 2

9 0 0 0 0 1 1 2 2 2 2 28.99999999999997868 0.00000000000000000 0.00000000000000000  20.00000000000000000 0.00000000000000000 53.00000000000000000  
28.99999999999997868 51.20768489800677514 0.00000000000000000  20.00000000000000000 48.00000000000000000 53.00000000000000000  

0.00000000000000000 2
51.20768489800677514 2

0.00000000000000000 2
1.00000000000000000 2

1 0.00000000000000000 24.00000000000000000 53.00000000000000000 0.00000000000000000 0.00000000000000000 1.00000000000000000 1.00000000000000000 0.00000000000000000 -0.00000000000000000 -0.00000000000000000 1.00000000000000000 0.00000000000000000 
2 -15.49999999999999645 11.50000000000000000 53.00000000000000000 0.00000000000000000 0.00000000000000000 1.00000000000000000 1.00000000000000000 0.00000000000000000 -0.00000000000000000 -0.00000000000000000 1.00000000000000000 0.00000000000000000 1.75000000000000000
2 15.50000000000000355 11.50000000000000000 53.00000000000000000 0.00000000000000000 0.00000000000000000 1.00000000000000000 1.00000000000000000 0.00000000000000000 -0.00000000000000000 -0.00000000000000000 1.00000000000000000 0.00000000000000000 1.75000000000000000
2 0.00000000000000000 27.00000000000000000 53.00000000000000000 0.00000000000000000 0.00000000000000000 1.00000000000000000 1.00000000000000000 0.00000000000000000 -0.00000000000000000 -0.00000000000000000 1.00000000000000000 0.00000000000000000 12.00000000000000000
2 -15.49999999999999645 42.50000000000000000 53.00000000000000000 0.00000000000000000 0.00000000000000000 1.00000000000000000 1.00000000000000000 0.00000000000000000 -0.00000000000000000 -0.00000000000000000 1.00000000000000000 0.00000000000000000 1.75000000000000000
2 15.50000000000000355 42.50000000000000000 53.00000000000000000 0.00000000000000000 0.00000000000000000 1.00000000000000000 1.00000000000000000 0.00000000000000000 -0.00000000000000000 -0.00000000000000000 1.00000000000000000 0.00000000000000000 1.75000000000000000
1 0.00000000000000072 27.00000000000000355 52.99999999999999289 0.00000000000000000 0.00000000000000000 1.00000000000000000 1.00000000000000000 0.00000000000000000 -0.00000000000000000 -0.00000000000000000 1.00000000000000000 0.00000000000000000 
1 0.00000000000000072 27.00000000000000355 52.99999999999999289 0.00000000000000000 0.00000000000000000 1.00000000000000000 1.00000000000000000 0.00000000000000000 -0.00000000000000000 -0.00000000000000000 1.00000000000000000 0.00000000000000000 
1 0.00000000000000072 27.00000000000000355 52.99999999999999289 0.00000000000000000 0.00000000000000000 1.00000000000000000 1.00000000000000000 0.00000000000000000 -0.00000000000000000 -0.00000000000000000 1.00000000000000000 0.00000000000000000 
1 0.00000000000000072 27.00000000000000355 52.99999999999999289 0.00000000000000000 0.00000000000000000 1.00000000000000000 1.00000000000000000 0.00000000000000000 -0.00000000000000000 -0.00000000000000000 1.00000000000000000 0.00000000000000000 
1 0.00000000000000072 27.00000000000000355 52.99999999999999289 0.00000000000000000 0.00000000000000000 1.00000000000000000 1.00000000000000000 0.00000000000000000 -0.00000000000000000 -0.00000000000000000 1.00000000000000000 0.00000000000000000 
Triangulations 0

TShapes 85
Ve
0.000000100000000
28.999999999999979 51.207684898006775 0.000000000000000
0 0

0101101
*
Ve
0.000000100000000
-29.000000000000000 43.841339735064686 0.000000000000000
0 0

0101101
*
Ed
 0.000000100000000 1 1 0
1  1 0 4.249194218775337 5.618699620150062
2  1 1 10 4.249194218775337 5.618699620150062
2  2 2 0 4.249194218775337 5.618699620150062
4 C0 1 10 2 0
0

0101000
+85 0 -84 0 *
Ve
0.000000100000000
-29.000000000000000 0.000000000000000 0.000000000000000
0 0

0101101
*
Ed
 0.000000100000000 1 1 0
1  2 0 0.000000000000000 43.841339735064686
2  3 1 10 0.000000000000000 43.841339735064686
2  4 3 0 0.000000000000000 43.841339735064686
4 C0 1 10 3 0
0

0101000
+84 0 -82 0 *
Ve
0.000000100000000
28.999999999999979 0.000000000000000 0.000000000000000
0 0

0101101
*
Ed
 0.000000100000000 1 1 0
1  3 0 0.000000000000000 57.999999999999979
2  5 1 10 0.000000000000000 57.999999999999979
2  6 4 0 0.000000000000000 57.999999999999979
4 C0 1 10 4 0
0

0101000
+82 0 -80 0 *
Ed
 0.000000100000000 1 1 0
1  4 0 0.000000000000000 51.207684898006775
2  7 1 10 0.000000000000000 51.207684898006775
2  8 5 0 0.000000000000000 51.207684898006775
4 C0 1 10 5 0
0

0101000
+80 0 -85 0 *
Wi

0101100
+83 9 +81 9 +79 9 +78 9 *
Fa
0  0.000000100000000 1 0

0111000
+77 8 *
Ve
0.000000100000000
-20.000000000000000 48.000000000000000 0.000000000000000
0 0

0101101
*
Ed
 0.000000100000000 1 1 0
1  5 0 0.000000000000000 1.000000000000000
2  9 2 0 0.000000000000000 1.000000000000000
2  10 3 0 0.000000000000000 1.000000000000000
4 C0 2 0 3 0
0

0101000
+84 0 -75 14 *
Ve
0.000000100000000
20.000000000000000 48.000000000000000 0.000000000000000
0 0

0101101
*
Ed
 0.000000100000000 1 1 0
1  6 0 0.000000000000000 40.000000000000000
2  11 2 15 0.000000000000000 40.000000000000000
0

0101000
+73 0 -75 0 *
Ed
 0.000000100000000 1 1 0
1  7 0 0.000000000000000 1.000000000000000
2  12 2 0 0.000000000000000 1.000000000000000
2  13 5 0 0.000000000000000 1.000000000000000
4 C0 2 0 5 0
0

0101000
+85 0 -73 14 *
Wi

0101100
+83 0 +74 0 -72 14 -71 0 *
Fa
0  0.000000100000000 2 0

0111000
+70 0 *
Ve
0.000000100000000
-20.000000000000000 0.000000000000000 0.000000000000000
0 0

0101101
*
Ed
 0.000000100000000 1 1 0
1  8 0 0.000000000000000 1.000000000000000
2  14 3 0 0.000000000000000 1.000000000000000
2  15 4 0 0.000000000000000 1.000000000000000
4 C0 3 0 4 0
0

0101000
+82 0 -68 14 *
Ed
 0.000000100000000 1 1 0
1  9 0 0.000000000000000 48.000000000000000
2  16 3 15 0.000000000000000 48.000000000000000
0

0101000
+75 0 -68 0 *
Wi

0101100
+81 0 +67 0 -66 14 -74 0 *
Fa
0  0.000000100000000 3 0

0111000
+65 0 *
Ve
0.000000100000000
20.000000000000000 0.000000000000000 0.000000000000000
0 0

0101101
*
Ed
 0.000000100000000 1 1 0
1  10 0 0.000000000000000 1.000000000000000
2  17 4 0 0.000000000000000 1.000000000000000
2  18 5 0 0.000000000000000 1.000000000000000
4 C0 4 0 5 0
0

0101000
+80 0 -63 14 *
Ed
 0.000000100000000 1 1 0
1  11 0 0.000000000000000 40.000000000000000
2  19 4 15 0.000000000000000 40.000000000000000
0

0101000
+68 0 -63 0 *
Wi

0101100
+79 0 +62 0 -61 14 -67 0 *
Fa
0  0.000000100000000 4 0

0111000
+60 0 *
Ed
 0.000000100000000 1 1 0
1  12 0 0.000000000000000 48.000000000000000
2  20 5 15 0.000000000000000 48.000000000000000
0

0101000
+63 0 -73 0 *
Wi

0101100
+78 0 +71 0 -58 14 -62 0 *
Fa
0  0.000000100000000 5 0

0111000
+57 0 *
Wi

0101100
+66 16 +72 16 +61 16 +58 16 *
Ve
0.000000100000000
-13.749999999999996 11.500000000000000 53.000000000000000
0 0

0101101
*
Ed
 0.000000100000000 1 1 0
1  13 0 0.000000000000000 6.283185307179586
2  21 7 20 0.000000000000000 6.283185307179586
2  22 7 22 0.000000000000000 6.283185307179586
0

0101000
+54 20 -54 20 *
Wi

0101100
-53 19 *
Ve
0.000000100000000
17.250000000000004 11.500000000000000 53.000000000000000
0 0

0101101
*
Ed
 0.000000100000000 1 1 0
1  14 0 0.000000000000000 6.283185307179586
2  23 8 20 0.000000000000000 6.283185307179586
2  24 8 22 0.000000000000000 6.283185307179586
0

0101000
+51 20 -51 20 *
Wi

0101100
-50 19 *
Ve
0.000000100000000
12.000000000000000 27.000000000000000 53.000000000000000
0 0

0101101
*
Ed
 0.000000100000000 1 1 0
1  15 0 0.000000000000000 6.283185307179586
2  25 9 20 0.000000000000000 6.283185307179586
2  26 9 22 0.000000000000000 6.283185307179586
0

0101000
+48 20 -48 20 *
Wi

0101100
-47 19 *
Ve
0.000000100000000
-13.749999999999996 42.500000000000000 53.000000000000000
0 0

0101101
*
Ed
 0.000000100000000 1 1 0
1  16 0 0.000000000000000 6.283185307179586
2  27 10 20 0.000000000000000 6.283185307179586
2  28 10 22 0.000000000000000 6.283185307179586
0

0101000
+45 20 -45 20 *
Wi

0101100
-44 19 *
Ve
0.000000100000000
17.250000000000004 42.500000000000000 53.000000000000000
0 0

0101101
*
Ed
 0.000000100000000 1 1 0
1  17 0 0.000000000000000 6.283185307179586
2  29 11 20 0.000000000000000 6.283185307179586
2  30 11 22 0.000000000000000 6.283185307179586
0

0101000
+42 20 -42 20 *
Wi

0101100
-41 19 *
Fa
0  0.000000100000000 6 11

0111000
+55 0 +52 0 +49 0 +46 0 +43 0 +40 0 *
Ve
0.000000100000000
-13.749999999999996 11.500000000000000 0.000000000000000
0 0

0101101
*
Ed
 0.000000100000000 1 1 0
1  18 0 0.000000000000000 10.000000000000000
3  31 32CN 7 0 0.000000000000000 10.000000000000000
0

0101000
+54 0 -38 23 *
Ed
 0.000000100000000 1 1 0
1  13 0 0.000000000000000 6.283185307179586
2  21 7 20 0.000000000000000 6.283185307179586
2  22 7 22 0.000000000000000 6.283185307179586
0

0101100
+38 0 -38 0 *
Wi

0101100
+37 0 -37 0 -53 19 +36 23 *
Fa
0  0.000000100000000 7 0

0111000
+35 0 *
Ve
0.000000100000000
17.250000000000004 11.500000000000000 0.000000000000000
0 0

0101101
*
Ed
 0.000000100000000 1 1 0
1  19 0 0.000000000000000 10.000000000000000
3  33 34CN 8 0 0.000000000000000 10.000000000000000
0

0101000
+51 0 -33 23 *
Ed
 0.000000100000000 1 1 0
1  14 0 0.000000000000000 6.283185307179586
2  23 8 20 0.000000000000000 6.283185307179586
2  24 8 22 0.000000000000000 6.283185307179586
0

0101100
+33 0 -33 0 *
Wi

0101100
+32 0 -32 0 -50 19 +31 23 *
Fa
0  0.000000100000000 8 0

0111000
+30 0 *
Ve
0.000000100000000
12.000000000000000 27.000000000000000 0.000000000000000
0 0

0101101
*
Ed
 0.000000100000000 1 1 0
1  20 0 0.000000000000000 10.000000000000000
3  35 36CN 9 0 0.000000000000000 10.000000000000000
0

0101000
+48 0 -28 23 *
Ed
 0.000000100000000 1 1 0
1  15 0 0.000000000000000 6.283185307179586
2  25 9 20 0.000000000000000 6.283185307179586
2  26 9 22 0.000000000000000 6.283185307179586
0

0101100
+28 0 -28 0 *
Wi

0101100
+27 0 -27 0 -47 19 +26 23 *
Fa
0  0.000000100000000 9 0

0111000
+25 0 *
Ve
0.000000100000000
-13.749999999999996 42.500000000000000 0.000000000000000
0 0

0101101
*
Ed
 0.000000100000000 1 1 0
1  21 0 0.000000000000000 10.000000000000000
3  37 38CN 10 0 0.000000000000000 10.000000000000000
0

0101000
+45 0 -23 23 *
Ed
 0.000000100000000 1 1 0
1  16 0 0.000000000000000 6.283185307179586
2  27 10 20 0.000000000000000 6.283185307179586
2  28 10 22 0.000000000000000 6.283185307179586
0

0101100
+23 0 -23 0 *
Wi

0101100
+22 0 -22 0 -44 19 +21 23 *
Fa
0  0.000000100000000 10 0

0111000
+20 0 *
Ve
0.000000100000000
17.250000000000004 42.500000000000000 0.000000000000000
0 0

0101101
*
Ed
 0.000000100000000 1 1 0
1  22 0 0.000000000000000 10.000000000000000
3  39 40CN 11 0 0.000000000000000 10.000000000000000
0

0101000
+42 0 -18 23 *
Ed
 0.000000100000000 1 1 0
1  17 0 0.000000000000000 6.283185307179586
2  29 11 20 0.000000000000000 6.283185307179586
2  30 11 22 0.000000000000000 6.283185307179586
0

0101100
+18 0 -18 0 *
Wi

0101100
+17 0 -17 0 -41 19 +16 23 *
Fa
0  0.000000100000000 11 0

0111000
+15 0 *
Wi

0101100
+36 0 *
Fa
0  0.000000100000000 12 0

0111000
+13 25 *
Wi

0101100
+31 0 *
Fa
0  0.000000100000000 13 0

0111000
+11 25 *
Wi

0101100
+26 0 *
Fa
0  0.000000100000000 14 0

0111000
+9 25 *
Wi

0101100
+21 0 *
Fa
0  0.000000100000000 15 0

0111000
+7 25 *
Wi

0101100
+16 0 *
Fa
0  0.000000100000000 16 0

0111000
+5 25 *
Sh

0101100
-76 5 +69 11 +64 11 +59 11 +56 11 +39 0 -34 0 -29 0 -24 0 -19 0 
-14 0 +12 24 +10 24 +8 24 +6 24 +4 24 *
So

0100000
+3 0 *
Co

1100000
+2 0 *

+1 1 