
CASCADE Topology V1, (c) Matra-Datavision
Locations 9
1
0.000000000000000 -1.000000000000000 0.000000000000000 0.000000000000000 
1.000000000000000 0.000000000000000 0.000000000000000 0.000000000000000 
0.000000000000000 0.000000000000000 1.000000000000000 0.000000000000000 
1
1.000000000000000 0.000000000000000 0.000000000000000 0.000000000000000 
0.000000000000000 1.000000000000000 0.000000000000000 0.000000000000000 
0.000000000000000 0.000000000000000 1.000000000000000 0.000000000000000 
2  1 1 2 -1 0
1
1.000000000000000 0.000000000000000 0.000000000000000 0.000000000000000 
0.000000000000000 1.000000000000000 0.000000000000000 0.000000000000000 
0.000000000000000 0.000000000000000 1.000000000000000 7.000000000000000 
2  1 1 2 -1 4 1 0
2  2 1 1 -1 0
2  4 -1 2 1 1 -1 0
2  2 -1 0
2  2 -1 4 1 0
Curve2ds 16
1 0.00000000000000000 0.00000000000000000 0.00000000000000000 -1.00000000000000000 
1 6.28318530717958623 0.00000000000000000 0.00000000000000000 -1.00000000000000000 
1 0.00000000000000000 0.00000000000000000 1.00000000000000000 0.00000000000000000 
1 0.00000000000000000 -7.00000000000000000 1.00000000000000000 0.00000000000000000 
1 0.00000000000000000 0.00000000000000000 0.00000000000000000 -1.00000000000000000 
1 6.28318530717958623 0.00000000000000000 0.00000000000000000 -1.00000000000000000 
1 0.00000000000000000 0.00000000000000000 1.00000000000000000 0.00000000000000000 
1 0.00000000000000000 -7.00000000000000000 1.00000000000000000 0.00000000000000000 
1 0.00000000000000000 0.00000000000000000 0.00000000000000000 -1.00000000000000000 
1 6.28318530717958623 0.00000000000000000 0.00000000000000000 -1.00000000000000000 
1 0.00000000000000000 0.00000000000000000 1.00000000000000000 0.00000000000000000 
1 0.00000000000000000 -7.00000000000000000 1.00000000000000000 0.00000000000000000 
1 0.00000000000000000 0.00000000000000000 0.00000000000000000 -1.00000000000000000 
1 6.28318530717958623 0.00000000000000000 0.00000000000000000 -1.00000000000000000 
1 0.00000000000000000 0.00000000000000000 1.00000000000000000 0.00000000000000000 
1 0.00000000000000000 -7.00000000000000000 1.00000000000000000 0.00000000000000000 
Curves 8
1 0.00000000000000755 34.00000000000000000 0.00000000000000000 0.00000000000000000 0.00000000000000000 1.00000000000000000 
2 27.00000000000000000 0.00000000000000000 0.00000000000000000 0.00000000000000000 0.00000000000000000 1.00000000000000000 1.00000000000000000 0.00000000000000000 -0.00000000000000000 -0.00000000000000000 1.00000000000000000 0.00000000000000000 7.00000000000000000
1 -21.99999999999999289 28.60000000000000497 0.00000000000000000 0.00000000000000000 0.00000000000000000 1.00000000000000000 
2 27.00000000000000000 22.00000000000000000 0.00000000000000000 0.00000000000000000 0.00000000000000000 1.00000000000000000 1.00000000000000000 0.00000000000000000 -0.00000000000000000 -0.00000000000000000 1.00000000000000000 0.00000000000000000 1.60000000000000009
1 12.00000000000001066 45.60000000000000142 0.00000000000000000 0.00000000000000000 0.00000000000000000 1.00000000000000000 
2 44.00000000000000000 -12.00000000000000000 0.00000000000000000 0.00000000000000000 0.00000000000000000 1.00000000000000000 1.00000000000000000 0.00000000000000000 -0.00000000000000000 -0.00000000000000000 1.00000000000000000 0.00000000000000000 1.60000000000000009
1 12.00000000000000178 11.59999999999999787 0.00000000000000000 0.00000000000000000 0.00000000000000000 1.00000000000000000 
2 10.00000000000000000 -12.00000000000000000 0.00000000000000000 0.00000000000000000 0.00000000000000000 1.00000000000000000 1.00000000000000000 0.00000000000000000 -0.00000000000000000 -0.00000000000000000 1.00000000000000000 0.00000000000000000 1.60000000000000009
Polygon3D 0
PolygonOnTriangulations 0
Surfaces 8
2 0.00000000000000600 27.00000000000000000 0.00000000000000000 -0.00000000000000000 0.00000000000000000 -1.00000000000000000 0.00000000000000022 1.00000000000000000 0.00000000000000000 -1.00000000000000000 0.00000000000000022 0.00000000000000000 7.00000000000000000
1 0.27118644067797049 26.99999999999999645 0.00000000000000000 0.00000000000000000 0.00000000000000000 1.00000000000000000 1.00000000000000000 0.00000000000000000 -0.00000000000000000 -0.00000000000000000 1.00000000000000000 0.00000000000000000 
2 -21.99999999999999289 27.00000000000000355 0.00000000000000000 -0.00000000000000000 0.00000000000000000 -1.00000000000000000 0.00000000000000022 1.00000000000000000 0.00000000000000000 -1.00000000000000000 0.00000000000000022 0.00000000000000000 1.60000000000000009
1 0.27118644067797049 26.99999999999999645 0.00000000000000000 0.00000000000000000 0.00000000000000000 1.00000000000000000 1.00000000000000000 0.00000000000000000 -0.00000000000000000 -0.00000000000000000 1.00000000000000000 0.00000000000000000 
2 12.00000000000001066 44.00000000000000000 0.00000000000000000 -0.00000000000000000 0.00000000000000000 -1.00000000000000000 0.00000000000000022 1.00000000000000000 0.00000000000000000 -1.00000000000000000 0.00000000000000022 0.00000000000000000 1.60000000000000009
1 0.27118644067797049 26.99999999999999645 0.00000000000000000 0.00000000000000000 0.00000000000000000 1.00000000000000000 1.00000000000000000 0.00000000000000000 -0.00000000000000000 -0.00000000000000000 1.00000000000000000 0.00000000000000000 
2 12.00000000000000178 9.99999999999999645 0.00000000000000000 -0.00000000000000000 0.00000000000000000 -1.00000000000000000 0.00000000000000022 1.00000000000000000 0.00000000000000000 -1.00000000000000000 0.00000000000000022 0.00000000000000000 1.60000000000000009
1 0.27118644067797049 26.99999999999999645 0.00000000000000000 0.00000000000000000 0.00000000000000000 1.00000000000000000 1.00000000000000000 0.00000000000000000 -0.00000000000000000 -0.00000000000000000 1.00000000000000000 0.00000000000000000 
Triangulations 0

TShapes 37
Ve
0.000000100000000
34.000000000000000 0.000000000000000 0.000000000000000
0 0

0101101
*
Ed
 0.000000100000000 1 1 0
1  1 0 0.000000000000000 7.000000000000000
3  1 2CN 1 0 0.000000000000000 7.000000000000000
0

0101000
+37 3 -37 5 *
Ed
 0.000000100000000 1 1 0
1  2 0 0.000000000000000 6.283185307179586
2  3 1 6 0.000000000000000 6.283185307179586
2  4 1 7 0.000000000000000 6.283185307179586
0

0101100
+37 0 -37 0 *
Wi

0101100
+36 0 -36 0 -35 3 +35 5 *
Fa
0  0.000000100000000 1 0

0111000
+34 0 *
Wi

0101100
+35 1 *
Fa
0  0.000000100000000 2 0

0111000
+32 0 *
Sh

0101100
+33 0 +31 8 -31 9 *
So

0100000
-30 0 *
Ve
0.000000100000000
28.600000000000001 22.000000000000000 0.000000000000000
0 0

0101101
*
Ed
 0.000000100000000 1 1 0
1  3 0 0.000000000000000 7.000000000000000
3  5 6CN 3 0 0.000000000000000 7.000000000000000
0

0101000
+28 3 -28 5 *
Ed
 0.000000100000000 1 1 0
1  4 0 0.000000000000000 6.283185307179586
2  7 3 6 0.000000000000000 6.283185307179586
2  8 3 7 0.000000000000000 6.283185307179586
0

0101100
+28 0 -28 0 *
Wi

0101100
+27 0 -27 0 -26 3 +26 5 *
Fa
0  0.000000100000000 3 0

0111000
+25 0 *
Wi

0101100
+26 1 *
Fa
0  0.000000100000000 4 0

0111000
+23 0 *
Sh

0101100
+24 0 +22 8 -22 9 *
So

0100000
-21 0 *
Ve
0.000000100000000
45.600000000000001 -12.000000000000000 0.000000000000000
0 0

0101101
*
Ed
 0.000000100000000 1 1 0
1  5 0 0.000000000000000 7.000000000000000
3  9 10CN 5 0 0.000000000000000 7.000000000000000
0

0101000
+19 3 -19 5 *
Ed
 0.000000100000000 1 1 0
1  6 0 0.000000000000000 6.283185307179586
2  11 5 6 0.000000000000000 6.283185307179586
2  12 5 7 0.000000000000000 6.283185307179586
0

0101100
+19 0 -19 0 *
Wi

0101100
+18 0 -18 0 -17 3 +17 5 *
Fa
0  0.000000100000000 5 0

0111000
+16 0 *
Wi

0101100
+17 1 *
Fa
0  0.000000100000000 6 0

0111000
+14 0 *
Sh

0101100
+15 0 +13 8 -13 9 *
So

0100000
-12 0 *
Ve
0.000000100000000
11.600000000000000 -12.000000000000000 0.000000000000000
0 0

0101101
*
Ed
 0.000000100000000 1 1 0
1  7 0 0.000000000000000 7.000000000000000
3  13 14CN 7 0 0.000000000000000 7.000000000000000
0

0101000
+10 3 -10 5 *
Ed
 0.000000100000000 1 1 0
1  8 0 0.000000000000000 6.283185307179586
2  15 7 6 0.000000000000000 6.283185307179586
2  16 7 7 0.000000000000000 6.283185307179586
0

0101100
+10 0 -10 0 *
Wi

0101100
+9 0 -9 0 -8 3 +8 5 *
Fa
0  0.000000100000000 7 0

0111000
+7 0 *
Wi

0101100
+8 1 *
Fa
0  0.000000100000000 8 0

0111000
+5 0 *
Sh

0101100
+6 0 +4 8 -4 9 *
So

0100000
-3 0 *
Co

1100000
+29 0 +20 0 +11 0 +2 0 *

+1 0 